%TF.GenerationSoftware,KiCad,Pcbnew,8.0.9*%
%TF.CreationDate,2025-03-10T14:56:14+11:00*%
%TF.ProjectId,stm32l05_dev_board,73746d33-326c-4303-955f-6465765f626f,rev?*%
%TF.SameCoordinates,Original*%
%TF.FileFunction,Drillmap*%
%TF.FilePolarity,Positive*%
%FSLAX45Y45*%
G04 Gerber Fmt 4.5, Leading zero omitted, Abs format (unit mm)*
G04 Created by KiCad (PCBNEW 8.0.9) date 2025-03-10 14:56:14*
%MOMM*%
%LPD*%
G01*
G04 APERTURE LIST*
%ADD10C,0.050000*%
%ADD11C,0.100000*%
%ADD12C,0.200000*%
%ADD13C,0.220000*%
G04 APERTURE END LIST*
D10*
X11840000Y-7260000D02*
X11840000Y-11610000D01*
X16380000Y-7280000D02*
X14235000Y-7264000D01*
X16380000Y-11610000D02*
X16380000Y-7280000D01*
X13485000Y-7264000D02*
X11840000Y-7260000D01*
X11840000Y-11610000D02*
X16380000Y-11610000D01*
D11*
X13580000Y-7264000D02*
X13485000Y-7264000D01*
X13580000Y-7421500D02*
X13580000Y-7264000D01*
X13665000Y-7421500D02*
X13665000Y-7264000D01*
X14055000Y-7264000D02*
X13665000Y-7264000D01*
X14055000Y-7421500D02*
X14055000Y-7264000D01*
X14140000Y-7421500D02*
X14140000Y-7264000D01*
X14235000Y-7264000D02*
X14140000Y-7264000D01*
X13665000Y-7421500D02*
G75*
G02*
X13580000Y-7421500I-42500J0D01*
G01*
X14140000Y-7421500D02*
G75*
G02*
X14055000Y-7421500I-42500J0D01*
G01*
D12*
D11*
X12445000Y-9794000D02*
X12475000Y-9824000D01*
X12475000Y-9794000D02*
X12445000Y-9824000D01*
X12495000Y-8755000D02*
X12525000Y-8785000D01*
X12525000Y-8755000D02*
X12495000Y-8785000D01*
X12995000Y-9244000D02*
X13025000Y-9274000D01*
X13025000Y-9244000D02*
X12995000Y-9274000D01*
X12995000Y-9644000D02*
X13025000Y-9674000D01*
X13025000Y-9644000D02*
X12995000Y-9674000D01*
X12995000Y-10444000D02*
X13025000Y-10474000D01*
X13025000Y-10444000D02*
X12995000Y-10474000D01*
X13095000Y-9879000D02*
X13125000Y-9909000D01*
X13125000Y-9879000D02*
X13095000Y-9909000D01*
X13145000Y-9294000D02*
X13175000Y-9324000D01*
X13175000Y-9294000D02*
X13145000Y-9324000D01*
X13245000Y-9944000D02*
X13275000Y-9974000D01*
X13275000Y-9944000D02*
X13245000Y-9974000D01*
X13545000Y-9044000D02*
X13575000Y-9074000D01*
X13575000Y-9044000D02*
X13545000Y-9074000D01*
X13612935Y-9607900D02*
X13642935Y-9637900D01*
X13642935Y-9607900D02*
X13612935Y-9637900D01*
X13795000Y-8594000D02*
X13825000Y-8624000D01*
X13825000Y-8594000D02*
X13795000Y-8624000D01*
X14095000Y-10044000D02*
X14125000Y-10074000D01*
X14125000Y-10044000D02*
X14095000Y-10074000D01*
X14245000Y-8694000D02*
X14275000Y-8724000D01*
X14275000Y-8694000D02*
X14245000Y-8724000D01*
X14295000Y-7894000D02*
X14325000Y-7924000D01*
X14325000Y-7894000D02*
X14295000Y-7924000D01*
X14395000Y-7794000D02*
X14425000Y-7824000D01*
X14425000Y-7794000D02*
X14395000Y-7824000D01*
X14745000Y-11094000D02*
X14775000Y-11124000D01*
X14775000Y-11094000D02*
X14745000Y-11124000D01*
X15095000Y-10344000D02*
X15125000Y-10374000D01*
X15125000Y-10344000D02*
X15095000Y-10374000D01*
X15095000Y-11094000D02*
X15125000Y-11124000D01*
X15125000Y-11094000D02*
X15095000Y-11124000D01*
X15595000Y-8244000D02*
X15625000Y-8274000D01*
X15625000Y-8244000D02*
X15595000Y-8274000D01*
X15745000Y-8444000D02*
X15775000Y-8474000D01*
X15775000Y-8444000D02*
X15745000Y-8474000D01*
X13472500Y-7409000D02*
G75*
G02*
X13412500Y-7409000I-30000J0D01*
G01*
X13412500Y-7409000D02*
G75*
G02*
X13472500Y-7409000I30000J0D01*
G01*
X13472500Y-7444000D02*
X13472500Y-7374000D01*
X13412500Y-7374000D02*
G75*
G02*
X13472500Y-7374000I30000J0D01*
G01*
X13412500Y-7374000D02*
X13412500Y-7444000D01*
X13412500Y-7444000D02*
G75*
G03*
X13472500Y-7444000I30000J0D01*
G01*
X14307500Y-7409000D02*
G75*
G02*
X14247500Y-7409000I-30000J0D01*
G01*
X14247500Y-7409000D02*
G75*
G02*
X14307500Y-7409000I30000J0D01*
G01*
X14307500Y-7444000D02*
X14307500Y-7374000D01*
X14247500Y-7374000D02*
G75*
G02*
X14307500Y-7374000I30000J0D01*
G01*
X14247500Y-7374000D02*
X14247500Y-7444000D01*
X14247500Y-7444000D02*
G75*
G03*
X14307500Y-7444000I30000J0D01*
G01*
X13637500Y-7676500D02*
X13637500Y-7741500D01*
X13605000Y-7709000D02*
X13670000Y-7709000D01*
X13670000Y-7719000D02*
X13670000Y-7699000D01*
X13605000Y-7699000D02*
G75*
G02*
X13670000Y-7699000I32500J0D01*
G01*
X13605000Y-7699000D02*
X13605000Y-7719000D01*
X13605000Y-7719000D02*
G75*
G03*
X13670000Y-7719000I32500J0D01*
G01*
X14082500Y-7676500D02*
X14082500Y-7741500D01*
X14050000Y-7709000D02*
X14115000Y-7709000D01*
X14115000Y-7719000D02*
X14115000Y-7699000D01*
X14050000Y-7699000D02*
G75*
G02*
X14115000Y-7699000I32500J0D01*
G01*
X14050000Y-7699000D02*
X14050000Y-7719000D01*
X14050000Y-7719000D02*
G75*
G03*
X14115000Y-7719000I32500J0D01*
G01*
X12561356Y-8565356D02*
X12561356Y-8494644D01*
X12490644Y-8494644D01*
X12490644Y-8565356D01*
X12561356Y-8565356D01*
X12815356Y-8565356D02*
X12815356Y-8494644D01*
X12744644Y-8494644D01*
X12744644Y-8565356D01*
X12815356Y-8565356D01*
X13429356Y-11394356D02*
X13429356Y-11323644D01*
X13358644Y-11323644D01*
X13358644Y-11394356D01*
X13429356Y-11394356D01*
X13683356Y-11394356D02*
X13683356Y-11323644D01*
X13612644Y-11323644D01*
X13612644Y-11394356D01*
X13683356Y-11394356D01*
X13937356Y-11394356D02*
X13937356Y-11323644D01*
X13866644Y-11323644D01*
X13866644Y-11394356D01*
X13937356Y-11394356D01*
X14191356Y-11394356D02*
X14191356Y-11323644D01*
X14120644Y-11323644D01*
X14120644Y-11394356D01*
X14191356Y-11394356D01*
X14445356Y-11394356D02*
X14445356Y-11323644D01*
X14374644Y-11323644D01*
X14374644Y-11394356D01*
X14445356Y-11394356D01*
X16045356Y-8494356D02*
X16045356Y-8423644D01*
X15974644Y-8423644D01*
X15974644Y-8494356D01*
X16045356Y-8494356D01*
X16045356Y-8748356D02*
X16045356Y-8677644D01*
X15974644Y-8677644D01*
X15974644Y-8748356D01*
X16045356Y-8748356D01*
X16045356Y-9002356D02*
X16045356Y-8931644D01*
X15974644Y-8931644D01*
X15974644Y-9002356D01*
X16045356Y-9002356D01*
X16045356Y-9256356D02*
X16045356Y-9185644D01*
X15974644Y-9185644D01*
X15974644Y-9256356D01*
X16045356Y-9256356D01*
X16045356Y-9682356D02*
X16045356Y-9611644D01*
X15974644Y-9611644D01*
X15974644Y-9682356D01*
X16045356Y-9682356D01*
X16045356Y-9936356D02*
X16045356Y-9865644D01*
X15974644Y-9865644D01*
X15974644Y-9936356D01*
X16045356Y-9936356D01*
X16045356Y-10190356D02*
X16045356Y-10119644D01*
X15974644Y-10119644D01*
X15974644Y-10190356D01*
X16045356Y-10190356D01*
X16045356Y-10444356D02*
X16045356Y-10373644D01*
X15974644Y-10373644D01*
X15974644Y-10444356D01*
X16045356Y-10444356D01*
X16045356Y-10698356D02*
X16045356Y-10627644D01*
X15974644Y-10627644D01*
X15974644Y-10698356D01*
X16045356Y-10698356D01*
D13*
X12100000Y-7669000D02*
X12210000Y-7559000D01*
X12100000Y-7449000D01*
X11990000Y-7559000D01*
X12100000Y-7669000D01*
X12100000Y-11410000D02*
X12210000Y-11300000D01*
X12100000Y-11190000D01*
X11990000Y-11300000D01*
X12100000Y-11410000D01*
X16000000Y-7669000D02*
X16110000Y-7559000D01*
X16000000Y-7449000D01*
X15890000Y-7559000D01*
X16000000Y-7669000D01*
X16000000Y-11410000D02*
X16110000Y-11300000D01*
X16000000Y-11190000D01*
X15890000Y-11300000D01*
X16000000Y-11410000D01*
D12*
X12098277Y-11923984D02*
X12098277Y-11723984D01*
X12098277Y-11723984D02*
X12145896Y-11723984D01*
X12145896Y-11723984D02*
X12174467Y-11733508D01*
X12174467Y-11733508D02*
X12193515Y-11752555D01*
X12193515Y-11752555D02*
X12203039Y-11771603D01*
X12203039Y-11771603D02*
X12212562Y-11809698D01*
X12212562Y-11809698D02*
X12212562Y-11838269D01*
X12212562Y-11838269D02*
X12203039Y-11876365D01*
X12203039Y-11876365D02*
X12193515Y-11895412D01*
X12193515Y-11895412D02*
X12174467Y-11914460D01*
X12174467Y-11914460D02*
X12145896Y-11923984D01*
X12145896Y-11923984D02*
X12098277Y-11923984D01*
X12298277Y-11923984D02*
X12298277Y-11790650D01*
X12298277Y-11828746D02*
X12307801Y-11809698D01*
X12307801Y-11809698D02*
X12317324Y-11800174D01*
X12317324Y-11800174D02*
X12336372Y-11790650D01*
X12336372Y-11790650D02*
X12355420Y-11790650D01*
X12422086Y-11923984D02*
X12422086Y-11790650D01*
X12422086Y-11723984D02*
X12412562Y-11733508D01*
X12412562Y-11733508D02*
X12422086Y-11743031D01*
X12422086Y-11743031D02*
X12431610Y-11733508D01*
X12431610Y-11733508D02*
X12422086Y-11723984D01*
X12422086Y-11723984D02*
X12422086Y-11743031D01*
X12545896Y-11923984D02*
X12526848Y-11914460D01*
X12526848Y-11914460D02*
X12517324Y-11895412D01*
X12517324Y-11895412D02*
X12517324Y-11723984D01*
X12650658Y-11923984D02*
X12631610Y-11914460D01*
X12631610Y-11914460D02*
X12622086Y-11895412D01*
X12622086Y-11895412D02*
X12622086Y-11723984D01*
X12879229Y-11923984D02*
X12879229Y-11723984D01*
X12879229Y-11723984D02*
X12945896Y-11866841D01*
X12945896Y-11866841D02*
X13012562Y-11723984D01*
X13012562Y-11723984D02*
X13012562Y-11923984D01*
X13193515Y-11923984D02*
X13193515Y-11819222D01*
X13193515Y-11819222D02*
X13183991Y-11800174D01*
X13183991Y-11800174D02*
X13164943Y-11790650D01*
X13164943Y-11790650D02*
X13126848Y-11790650D01*
X13126848Y-11790650D02*
X13107801Y-11800174D01*
X13193515Y-11914460D02*
X13174467Y-11923984D01*
X13174467Y-11923984D02*
X13126848Y-11923984D01*
X13126848Y-11923984D02*
X13107801Y-11914460D01*
X13107801Y-11914460D02*
X13098277Y-11895412D01*
X13098277Y-11895412D02*
X13098277Y-11876365D01*
X13098277Y-11876365D02*
X13107801Y-11857317D01*
X13107801Y-11857317D02*
X13126848Y-11847793D01*
X13126848Y-11847793D02*
X13174467Y-11847793D01*
X13174467Y-11847793D02*
X13193515Y-11838269D01*
X13288753Y-11790650D02*
X13288753Y-11990650D01*
X13288753Y-11800174D02*
X13307801Y-11790650D01*
X13307801Y-11790650D02*
X13345896Y-11790650D01*
X13345896Y-11790650D02*
X13364943Y-11800174D01*
X13364943Y-11800174D02*
X13374467Y-11809698D01*
X13374467Y-11809698D02*
X13383991Y-11828746D01*
X13383991Y-11828746D02*
X13383991Y-11885888D01*
X13383991Y-11885888D02*
X13374467Y-11904936D01*
X13374467Y-11904936D02*
X13364943Y-11914460D01*
X13364943Y-11914460D02*
X13345896Y-11923984D01*
X13345896Y-11923984D02*
X13307801Y-11923984D01*
X13307801Y-11923984D02*
X13288753Y-11914460D01*
X13469705Y-11904936D02*
X13479229Y-11914460D01*
X13479229Y-11914460D02*
X13469705Y-11923984D01*
X13469705Y-11923984D02*
X13460182Y-11914460D01*
X13460182Y-11914460D02*
X13469705Y-11904936D01*
X13469705Y-11904936D02*
X13469705Y-11923984D01*
X13469705Y-11800174D02*
X13479229Y-11809698D01*
X13479229Y-11809698D02*
X13469705Y-11819222D01*
X13469705Y-11819222D02*
X13460182Y-11809698D01*
X13460182Y-11809698D02*
X13469705Y-11800174D01*
X13469705Y-11800174D02*
X13469705Y-11819222D01*
D11*
X11807500Y-12237500D02*
X11837500Y-12267500D01*
X11837500Y-12237500D02*
X11807500Y-12267500D01*
D12*
X12136372Y-12143984D02*
X12155420Y-12143984D01*
X12155420Y-12143984D02*
X12174467Y-12153508D01*
X12174467Y-12153508D02*
X12183991Y-12163031D01*
X12183991Y-12163031D02*
X12193515Y-12182079D01*
X12193515Y-12182079D02*
X12203039Y-12220174D01*
X12203039Y-12220174D02*
X12203039Y-12267793D01*
X12203039Y-12267793D02*
X12193515Y-12305888D01*
X12193515Y-12305888D02*
X12183991Y-12324936D01*
X12183991Y-12324936D02*
X12174467Y-12334460D01*
X12174467Y-12334460D02*
X12155420Y-12343984D01*
X12155420Y-12343984D02*
X12136372Y-12343984D01*
X12136372Y-12343984D02*
X12117324Y-12334460D01*
X12117324Y-12334460D02*
X12107801Y-12324936D01*
X12107801Y-12324936D02*
X12098277Y-12305888D01*
X12098277Y-12305888D02*
X12088753Y-12267793D01*
X12088753Y-12267793D02*
X12088753Y-12220174D01*
X12088753Y-12220174D02*
X12098277Y-12182079D01*
X12098277Y-12182079D02*
X12107801Y-12163031D01*
X12107801Y-12163031D02*
X12117324Y-12153508D01*
X12117324Y-12153508D02*
X12136372Y-12143984D01*
X12288753Y-12324936D02*
X12298277Y-12334460D01*
X12298277Y-12334460D02*
X12288753Y-12343984D01*
X12288753Y-12343984D02*
X12279229Y-12334460D01*
X12279229Y-12334460D02*
X12288753Y-12324936D01*
X12288753Y-12324936D02*
X12288753Y-12343984D01*
X12364943Y-12143984D02*
X12488753Y-12143984D01*
X12488753Y-12143984D02*
X12422086Y-12220174D01*
X12422086Y-12220174D02*
X12450658Y-12220174D01*
X12450658Y-12220174D02*
X12469705Y-12229698D01*
X12469705Y-12229698D02*
X12479229Y-12239222D01*
X12479229Y-12239222D02*
X12488753Y-12258269D01*
X12488753Y-12258269D02*
X12488753Y-12305888D01*
X12488753Y-12305888D02*
X12479229Y-12324936D01*
X12479229Y-12324936D02*
X12469705Y-12334460D01*
X12469705Y-12334460D02*
X12450658Y-12343984D01*
X12450658Y-12343984D02*
X12393515Y-12343984D01*
X12393515Y-12343984D02*
X12374467Y-12334460D01*
X12374467Y-12334460D02*
X12364943Y-12324936D01*
X12612562Y-12143984D02*
X12631610Y-12143984D01*
X12631610Y-12143984D02*
X12650658Y-12153508D01*
X12650658Y-12153508D02*
X12660182Y-12163031D01*
X12660182Y-12163031D02*
X12669705Y-12182079D01*
X12669705Y-12182079D02*
X12679229Y-12220174D01*
X12679229Y-12220174D02*
X12679229Y-12267793D01*
X12679229Y-12267793D02*
X12669705Y-12305888D01*
X12669705Y-12305888D02*
X12660182Y-12324936D01*
X12660182Y-12324936D02*
X12650658Y-12334460D01*
X12650658Y-12334460D02*
X12631610Y-12343984D01*
X12631610Y-12343984D02*
X12612562Y-12343984D01*
X12612562Y-12343984D02*
X12593515Y-12334460D01*
X12593515Y-12334460D02*
X12583991Y-12324936D01*
X12583991Y-12324936D02*
X12574467Y-12305888D01*
X12574467Y-12305888D02*
X12564943Y-12267793D01*
X12564943Y-12267793D02*
X12564943Y-12220174D01*
X12564943Y-12220174D02*
X12574467Y-12182079D01*
X12574467Y-12182079D02*
X12583991Y-12163031D01*
X12583991Y-12163031D02*
X12593515Y-12153508D01*
X12593515Y-12153508D02*
X12612562Y-12143984D01*
X12803039Y-12143984D02*
X12822086Y-12143984D01*
X12822086Y-12143984D02*
X12841134Y-12153508D01*
X12841134Y-12153508D02*
X12850658Y-12163031D01*
X12850658Y-12163031D02*
X12860182Y-12182079D01*
X12860182Y-12182079D02*
X12869705Y-12220174D01*
X12869705Y-12220174D02*
X12869705Y-12267793D01*
X12869705Y-12267793D02*
X12860182Y-12305888D01*
X12860182Y-12305888D02*
X12850658Y-12324936D01*
X12850658Y-12324936D02*
X12841134Y-12334460D01*
X12841134Y-12334460D02*
X12822086Y-12343984D01*
X12822086Y-12343984D02*
X12803039Y-12343984D01*
X12803039Y-12343984D02*
X12783991Y-12334460D01*
X12783991Y-12334460D02*
X12774467Y-12324936D01*
X12774467Y-12324936D02*
X12764943Y-12305888D01*
X12764943Y-12305888D02*
X12755420Y-12267793D01*
X12755420Y-12267793D02*
X12755420Y-12220174D01*
X12755420Y-12220174D02*
X12764943Y-12182079D01*
X12764943Y-12182079D02*
X12774467Y-12163031D01*
X12774467Y-12163031D02*
X12783991Y-12153508D01*
X12783991Y-12153508D02*
X12803039Y-12143984D01*
X12955420Y-12343984D02*
X12955420Y-12210650D01*
X12955420Y-12229698D02*
X12964943Y-12220174D01*
X12964943Y-12220174D02*
X12983991Y-12210650D01*
X12983991Y-12210650D02*
X13012563Y-12210650D01*
X13012563Y-12210650D02*
X13031610Y-12220174D01*
X13031610Y-12220174D02*
X13041134Y-12239222D01*
X13041134Y-12239222D02*
X13041134Y-12343984D01*
X13041134Y-12239222D02*
X13050658Y-12220174D01*
X13050658Y-12220174D02*
X13069705Y-12210650D01*
X13069705Y-12210650D02*
X13098277Y-12210650D01*
X13098277Y-12210650D02*
X13117324Y-12220174D01*
X13117324Y-12220174D02*
X13126848Y-12239222D01*
X13126848Y-12239222D02*
X13126848Y-12343984D01*
X13222086Y-12343984D02*
X13222086Y-12210650D01*
X13222086Y-12229698D02*
X13231610Y-12220174D01*
X13231610Y-12220174D02*
X13250658Y-12210650D01*
X13250658Y-12210650D02*
X13279229Y-12210650D01*
X13279229Y-12210650D02*
X13298277Y-12220174D01*
X13298277Y-12220174D02*
X13307801Y-12239222D01*
X13307801Y-12239222D02*
X13307801Y-12343984D01*
X13307801Y-12239222D02*
X13317324Y-12220174D01*
X13317324Y-12220174D02*
X13336372Y-12210650D01*
X13336372Y-12210650D02*
X13364943Y-12210650D01*
X13364943Y-12210650D02*
X13383991Y-12220174D01*
X13383991Y-12220174D02*
X13393515Y-12239222D01*
X13393515Y-12239222D02*
X13393515Y-12343984D01*
X13783991Y-12134460D02*
X13612563Y-12391603D01*
X14041134Y-12143984D02*
X14060182Y-12143984D01*
X14060182Y-12143984D02*
X14079229Y-12153508D01*
X14079229Y-12153508D02*
X14088753Y-12163031D01*
X14088753Y-12163031D02*
X14098277Y-12182079D01*
X14098277Y-12182079D02*
X14107801Y-12220174D01*
X14107801Y-12220174D02*
X14107801Y-12267793D01*
X14107801Y-12267793D02*
X14098277Y-12305888D01*
X14098277Y-12305888D02*
X14088753Y-12324936D01*
X14088753Y-12324936D02*
X14079229Y-12334460D01*
X14079229Y-12334460D02*
X14060182Y-12343984D01*
X14060182Y-12343984D02*
X14041134Y-12343984D01*
X14041134Y-12343984D02*
X14022086Y-12334460D01*
X14022086Y-12334460D02*
X14012563Y-12324936D01*
X14012563Y-12324936D02*
X14003039Y-12305888D01*
X14003039Y-12305888D02*
X13993515Y-12267793D01*
X13993515Y-12267793D02*
X13993515Y-12220174D01*
X13993515Y-12220174D02*
X14003039Y-12182079D01*
X14003039Y-12182079D02*
X14012563Y-12163031D01*
X14012563Y-12163031D02*
X14022086Y-12153508D01*
X14022086Y-12153508D02*
X14041134Y-12143984D01*
X14193515Y-12324936D02*
X14203039Y-12334460D01*
X14203039Y-12334460D02*
X14193515Y-12343984D01*
X14193515Y-12343984D02*
X14183991Y-12334460D01*
X14183991Y-12334460D02*
X14193515Y-12324936D01*
X14193515Y-12324936D02*
X14193515Y-12343984D01*
X14326848Y-12143984D02*
X14345896Y-12143984D01*
X14345896Y-12143984D02*
X14364944Y-12153508D01*
X14364944Y-12153508D02*
X14374467Y-12163031D01*
X14374467Y-12163031D02*
X14383991Y-12182079D01*
X14383991Y-12182079D02*
X14393515Y-12220174D01*
X14393515Y-12220174D02*
X14393515Y-12267793D01*
X14393515Y-12267793D02*
X14383991Y-12305888D01*
X14383991Y-12305888D02*
X14374467Y-12324936D01*
X14374467Y-12324936D02*
X14364944Y-12334460D01*
X14364944Y-12334460D02*
X14345896Y-12343984D01*
X14345896Y-12343984D02*
X14326848Y-12343984D01*
X14326848Y-12343984D02*
X14307801Y-12334460D01*
X14307801Y-12334460D02*
X14298277Y-12324936D01*
X14298277Y-12324936D02*
X14288753Y-12305888D01*
X14288753Y-12305888D02*
X14279229Y-12267793D01*
X14279229Y-12267793D02*
X14279229Y-12220174D01*
X14279229Y-12220174D02*
X14288753Y-12182079D01*
X14288753Y-12182079D02*
X14298277Y-12163031D01*
X14298277Y-12163031D02*
X14307801Y-12153508D01*
X14307801Y-12153508D02*
X14326848Y-12143984D01*
X14583991Y-12343984D02*
X14469706Y-12343984D01*
X14526848Y-12343984D02*
X14526848Y-12143984D01*
X14526848Y-12143984D02*
X14507801Y-12172555D01*
X14507801Y-12172555D02*
X14488753Y-12191603D01*
X14488753Y-12191603D02*
X14469706Y-12201127D01*
X14774467Y-12343984D02*
X14660182Y-12343984D01*
X14717325Y-12343984D02*
X14717325Y-12143984D01*
X14717325Y-12143984D02*
X14698277Y-12172555D01*
X14698277Y-12172555D02*
X14679229Y-12191603D01*
X14679229Y-12191603D02*
X14660182Y-12201127D01*
X14888753Y-12229698D02*
X14869706Y-12220174D01*
X14869706Y-12220174D02*
X14860182Y-12210650D01*
X14860182Y-12210650D02*
X14850658Y-12191603D01*
X14850658Y-12191603D02*
X14850658Y-12182079D01*
X14850658Y-12182079D02*
X14860182Y-12163031D01*
X14860182Y-12163031D02*
X14869706Y-12153508D01*
X14869706Y-12153508D02*
X14888753Y-12143984D01*
X14888753Y-12143984D02*
X14926848Y-12143984D01*
X14926848Y-12143984D02*
X14945896Y-12153508D01*
X14945896Y-12153508D02*
X14955420Y-12163031D01*
X14955420Y-12163031D02*
X14964944Y-12182079D01*
X14964944Y-12182079D02*
X14964944Y-12191603D01*
X14964944Y-12191603D02*
X14955420Y-12210650D01*
X14955420Y-12210650D02*
X14945896Y-12220174D01*
X14945896Y-12220174D02*
X14926848Y-12229698D01*
X14926848Y-12229698D02*
X14888753Y-12229698D01*
X14888753Y-12229698D02*
X14869706Y-12239222D01*
X14869706Y-12239222D02*
X14860182Y-12248746D01*
X14860182Y-12248746D02*
X14850658Y-12267793D01*
X14850658Y-12267793D02*
X14850658Y-12305888D01*
X14850658Y-12305888D02*
X14860182Y-12324936D01*
X14860182Y-12324936D02*
X14869706Y-12334460D01*
X14869706Y-12334460D02*
X14888753Y-12343984D01*
X14888753Y-12343984D02*
X14926848Y-12343984D01*
X14926848Y-12343984D02*
X14945896Y-12334460D01*
X14945896Y-12334460D02*
X14955420Y-12324936D01*
X14955420Y-12324936D02*
X14964944Y-12305888D01*
X14964944Y-12305888D02*
X14964944Y-12267793D01*
X14964944Y-12267793D02*
X14955420Y-12248746D01*
X14955420Y-12248746D02*
X14945896Y-12239222D01*
X14945896Y-12239222D02*
X14926848Y-12229698D01*
X15041134Y-12143984D02*
X15041134Y-12182079D01*
X15117325Y-12143984D02*
X15117325Y-12182079D01*
X15412563Y-12420174D02*
X15403039Y-12410650D01*
X15403039Y-12410650D02*
X15383991Y-12382079D01*
X15383991Y-12382079D02*
X15374468Y-12363031D01*
X15374468Y-12363031D02*
X15364944Y-12334460D01*
X15364944Y-12334460D02*
X15355420Y-12286841D01*
X15355420Y-12286841D02*
X15355420Y-12248746D01*
X15355420Y-12248746D02*
X15364944Y-12201127D01*
X15364944Y-12201127D02*
X15374468Y-12172555D01*
X15374468Y-12172555D02*
X15383991Y-12153508D01*
X15383991Y-12153508D02*
X15403039Y-12124936D01*
X15403039Y-12124936D02*
X15412563Y-12115412D01*
X15479229Y-12163031D02*
X15488753Y-12153508D01*
X15488753Y-12153508D02*
X15507801Y-12143984D01*
X15507801Y-12143984D02*
X15555420Y-12143984D01*
X15555420Y-12143984D02*
X15574468Y-12153508D01*
X15574468Y-12153508D02*
X15583991Y-12163031D01*
X15583991Y-12163031D02*
X15593515Y-12182079D01*
X15593515Y-12182079D02*
X15593515Y-12201127D01*
X15593515Y-12201127D02*
X15583991Y-12229698D01*
X15583991Y-12229698D02*
X15469706Y-12343984D01*
X15469706Y-12343984D02*
X15593515Y-12343984D01*
X15717325Y-12143984D02*
X15736372Y-12143984D01*
X15736372Y-12143984D02*
X15755420Y-12153508D01*
X15755420Y-12153508D02*
X15764944Y-12163031D01*
X15764944Y-12163031D02*
X15774468Y-12182079D01*
X15774468Y-12182079D02*
X15783991Y-12220174D01*
X15783991Y-12220174D02*
X15783991Y-12267793D01*
X15783991Y-12267793D02*
X15774468Y-12305888D01*
X15774468Y-12305888D02*
X15764944Y-12324936D01*
X15764944Y-12324936D02*
X15755420Y-12334460D01*
X15755420Y-12334460D02*
X15736372Y-12343984D01*
X15736372Y-12343984D02*
X15717325Y-12343984D01*
X15717325Y-12343984D02*
X15698277Y-12334460D01*
X15698277Y-12334460D02*
X15688753Y-12324936D01*
X15688753Y-12324936D02*
X15679229Y-12305888D01*
X15679229Y-12305888D02*
X15669706Y-12267793D01*
X15669706Y-12267793D02*
X15669706Y-12220174D01*
X15669706Y-12220174D02*
X15679229Y-12182079D01*
X15679229Y-12182079D02*
X15688753Y-12163031D01*
X15688753Y-12163031D02*
X15698277Y-12153508D01*
X15698277Y-12153508D02*
X15717325Y-12143984D01*
X16022087Y-12343984D02*
X16022087Y-12143984D01*
X16107801Y-12343984D02*
X16107801Y-12239222D01*
X16107801Y-12239222D02*
X16098277Y-12220174D01*
X16098277Y-12220174D02*
X16079230Y-12210650D01*
X16079230Y-12210650D02*
X16050658Y-12210650D01*
X16050658Y-12210650D02*
X16031610Y-12220174D01*
X16031610Y-12220174D02*
X16022087Y-12229698D01*
X16231610Y-12343984D02*
X16212563Y-12334460D01*
X16212563Y-12334460D02*
X16203039Y-12324936D01*
X16203039Y-12324936D02*
X16193515Y-12305888D01*
X16193515Y-12305888D02*
X16193515Y-12248746D01*
X16193515Y-12248746D02*
X16203039Y-12229698D01*
X16203039Y-12229698D02*
X16212563Y-12220174D01*
X16212563Y-12220174D02*
X16231610Y-12210650D01*
X16231610Y-12210650D02*
X16260182Y-12210650D01*
X16260182Y-12210650D02*
X16279230Y-12220174D01*
X16279230Y-12220174D02*
X16288753Y-12229698D01*
X16288753Y-12229698D02*
X16298277Y-12248746D01*
X16298277Y-12248746D02*
X16298277Y-12305888D01*
X16298277Y-12305888D02*
X16288753Y-12324936D01*
X16288753Y-12324936D02*
X16279230Y-12334460D01*
X16279230Y-12334460D02*
X16260182Y-12343984D01*
X16260182Y-12343984D02*
X16231610Y-12343984D01*
X16412563Y-12343984D02*
X16393515Y-12334460D01*
X16393515Y-12334460D02*
X16383991Y-12315412D01*
X16383991Y-12315412D02*
X16383991Y-12143984D01*
X16564944Y-12334460D02*
X16545896Y-12343984D01*
X16545896Y-12343984D02*
X16507801Y-12343984D01*
X16507801Y-12343984D02*
X16488753Y-12334460D01*
X16488753Y-12334460D02*
X16479230Y-12315412D01*
X16479230Y-12315412D02*
X16479230Y-12239222D01*
X16479230Y-12239222D02*
X16488753Y-12220174D01*
X16488753Y-12220174D02*
X16507801Y-12210650D01*
X16507801Y-12210650D02*
X16545896Y-12210650D01*
X16545896Y-12210650D02*
X16564944Y-12220174D01*
X16564944Y-12220174D02*
X16574468Y-12239222D01*
X16574468Y-12239222D02*
X16574468Y-12258269D01*
X16574468Y-12258269D02*
X16479230Y-12277317D01*
X16650658Y-12334460D02*
X16669706Y-12343984D01*
X16669706Y-12343984D02*
X16707801Y-12343984D01*
X16707801Y-12343984D02*
X16726849Y-12334460D01*
X16726849Y-12334460D02*
X16736372Y-12315412D01*
X16736372Y-12315412D02*
X16736372Y-12305888D01*
X16736372Y-12305888D02*
X16726849Y-12286841D01*
X16726849Y-12286841D02*
X16707801Y-12277317D01*
X16707801Y-12277317D02*
X16679230Y-12277317D01*
X16679230Y-12277317D02*
X16660182Y-12267793D01*
X16660182Y-12267793D02*
X16650658Y-12248746D01*
X16650658Y-12248746D02*
X16650658Y-12239222D01*
X16650658Y-12239222D02*
X16660182Y-12220174D01*
X16660182Y-12220174D02*
X16679230Y-12210650D01*
X16679230Y-12210650D02*
X16707801Y-12210650D01*
X16707801Y-12210650D02*
X16726849Y-12220174D01*
X16803039Y-12420174D02*
X16812563Y-12410650D01*
X16812563Y-12410650D02*
X16831611Y-12382079D01*
X16831611Y-12382079D02*
X16841134Y-12363031D01*
X16841134Y-12363031D02*
X16850658Y-12334460D01*
X16850658Y-12334460D02*
X16860182Y-12286841D01*
X16860182Y-12286841D02*
X16860182Y-12248746D01*
X16860182Y-12248746D02*
X16850658Y-12201127D01*
X16850658Y-12201127D02*
X16841134Y-12172555D01*
X16841134Y-12172555D02*
X16831611Y-12153508D01*
X16831611Y-12153508D02*
X16812563Y-12124936D01*
X16812563Y-12124936D02*
X16803039Y-12115412D01*
D11*
X11837500Y-12516500D02*
G75*
G02*
X11777500Y-12516500I-30000J0D01*
G01*
X11777500Y-12516500D02*
G75*
G02*
X11837500Y-12516500I30000J0D01*
G01*
D12*
X12136372Y-12407984D02*
X12155420Y-12407984D01*
X12155420Y-12407984D02*
X12174467Y-12417508D01*
X12174467Y-12417508D02*
X12183991Y-12427031D01*
X12183991Y-12427031D02*
X12193515Y-12446079D01*
X12193515Y-12446079D02*
X12203039Y-12484174D01*
X12203039Y-12484174D02*
X12203039Y-12531793D01*
X12203039Y-12531793D02*
X12193515Y-12569888D01*
X12193515Y-12569888D02*
X12183991Y-12588936D01*
X12183991Y-12588936D02*
X12174467Y-12598460D01*
X12174467Y-12598460D02*
X12155420Y-12607984D01*
X12155420Y-12607984D02*
X12136372Y-12607984D01*
X12136372Y-12607984D02*
X12117324Y-12598460D01*
X12117324Y-12598460D02*
X12107801Y-12588936D01*
X12107801Y-12588936D02*
X12098277Y-12569888D01*
X12098277Y-12569888D02*
X12088753Y-12531793D01*
X12088753Y-12531793D02*
X12088753Y-12484174D01*
X12088753Y-12484174D02*
X12098277Y-12446079D01*
X12098277Y-12446079D02*
X12107801Y-12427031D01*
X12107801Y-12427031D02*
X12117324Y-12417508D01*
X12117324Y-12417508D02*
X12136372Y-12407984D01*
X12288753Y-12588936D02*
X12298277Y-12598460D01*
X12298277Y-12598460D02*
X12288753Y-12607984D01*
X12288753Y-12607984D02*
X12279229Y-12598460D01*
X12279229Y-12598460D02*
X12288753Y-12588936D01*
X12288753Y-12588936D02*
X12288753Y-12607984D01*
X12469705Y-12407984D02*
X12431610Y-12407984D01*
X12431610Y-12407984D02*
X12412562Y-12417508D01*
X12412562Y-12417508D02*
X12403039Y-12427031D01*
X12403039Y-12427031D02*
X12383991Y-12455603D01*
X12383991Y-12455603D02*
X12374467Y-12493698D01*
X12374467Y-12493698D02*
X12374467Y-12569888D01*
X12374467Y-12569888D02*
X12383991Y-12588936D01*
X12383991Y-12588936D02*
X12393515Y-12598460D01*
X12393515Y-12598460D02*
X12412562Y-12607984D01*
X12412562Y-12607984D02*
X12450658Y-12607984D01*
X12450658Y-12607984D02*
X12469705Y-12598460D01*
X12469705Y-12598460D02*
X12479229Y-12588936D01*
X12479229Y-12588936D02*
X12488753Y-12569888D01*
X12488753Y-12569888D02*
X12488753Y-12522269D01*
X12488753Y-12522269D02*
X12479229Y-12503222D01*
X12479229Y-12503222D02*
X12469705Y-12493698D01*
X12469705Y-12493698D02*
X12450658Y-12484174D01*
X12450658Y-12484174D02*
X12412562Y-12484174D01*
X12412562Y-12484174D02*
X12393515Y-12493698D01*
X12393515Y-12493698D02*
X12383991Y-12503222D01*
X12383991Y-12503222D02*
X12374467Y-12522269D01*
X12612562Y-12407984D02*
X12631610Y-12407984D01*
X12631610Y-12407984D02*
X12650658Y-12417508D01*
X12650658Y-12417508D02*
X12660182Y-12427031D01*
X12660182Y-12427031D02*
X12669705Y-12446079D01*
X12669705Y-12446079D02*
X12679229Y-12484174D01*
X12679229Y-12484174D02*
X12679229Y-12531793D01*
X12679229Y-12531793D02*
X12669705Y-12569888D01*
X12669705Y-12569888D02*
X12660182Y-12588936D01*
X12660182Y-12588936D02*
X12650658Y-12598460D01*
X12650658Y-12598460D02*
X12631610Y-12607984D01*
X12631610Y-12607984D02*
X12612562Y-12607984D01*
X12612562Y-12607984D02*
X12593515Y-12598460D01*
X12593515Y-12598460D02*
X12583991Y-12588936D01*
X12583991Y-12588936D02*
X12574467Y-12569888D01*
X12574467Y-12569888D02*
X12564943Y-12531793D01*
X12564943Y-12531793D02*
X12564943Y-12484174D01*
X12564943Y-12484174D02*
X12574467Y-12446079D01*
X12574467Y-12446079D02*
X12583991Y-12427031D01*
X12583991Y-12427031D02*
X12593515Y-12417508D01*
X12593515Y-12417508D02*
X12612562Y-12407984D01*
X12803039Y-12407984D02*
X12822086Y-12407984D01*
X12822086Y-12407984D02*
X12841134Y-12417508D01*
X12841134Y-12417508D02*
X12850658Y-12427031D01*
X12850658Y-12427031D02*
X12860182Y-12446079D01*
X12860182Y-12446079D02*
X12869705Y-12484174D01*
X12869705Y-12484174D02*
X12869705Y-12531793D01*
X12869705Y-12531793D02*
X12860182Y-12569888D01*
X12860182Y-12569888D02*
X12850658Y-12588936D01*
X12850658Y-12588936D02*
X12841134Y-12598460D01*
X12841134Y-12598460D02*
X12822086Y-12607984D01*
X12822086Y-12607984D02*
X12803039Y-12607984D01*
X12803039Y-12607984D02*
X12783991Y-12598460D01*
X12783991Y-12598460D02*
X12774467Y-12588936D01*
X12774467Y-12588936D02*
X12764943Y-12569888D01*
X12764943Y-12569888D02*
X12755420Y-12531793D01*
X12755420Y-12531793D02*
X12755420Y-12484174D01*
X12755420Y-12484174D02*
X12764943Y-12446079D01*
X12764943Y-12446079D02*
X12774467Y-12427031D01*
X12774467Y-12427031D02*
X12783991Y-12417508D01*
X12783991Y-12417508D02*
X12803039Y-12407984D01*
X12955420Y-12607984D02*
X12955420Y-12474650D01*
X12955420Y-12493698D02*
X12964943Y-12484174D01*
X12964943Y-12484174D02*
X12983991Y-12474650D01*
X12983991Y-12474650D02*
X13012563Y-12474650D01*
X13012563Y-12474650D02*
X13031610Y-12484174D01*
X13031610Y-12484174D02*
X13041134Y-12503222D01*
X13041134Y-12503222D02*
X13041134Y-12607984D01*
X13041134Y-12503222D02*
X13050658Y-12484174D01*
X13050658Y-12484174D02*
X13069705Y-12474650D01*
X13069705Y-12474650D02*
X13098277Y-12474650D01*
X13098277Y-12474650D02*
X13117324Y-12484174D01*
X13117324Y-12484174D02*
X13126848Y-12503222D01*
X13126848Y-12503222D02*
X13126848Y-12607984D01*
X13222086Y-12607984D02*
X13222086Y-12474650D01*
X13222086Y-12493698D02*
X13231610Y-12484174D01*
X13231610Y-12484174D02*
X13250658Y-12474650D01*
X13250658Y-12474650D02*
X13279229Y-12474650D01*
X13279229Y-12474650D02*
X13298277Y-12484174D01*
X13298277Y-12484174D02*
X13307801Y-12503222D01*
X13307801Y-12503222D02*
X13307801Y-12607984D01*
X13307801Y-12503222D02*
X13317324Y-12484174D01*
X13317324Y-12484174D02*
X13336372Y-12474650D01*
X13336372Y-12474650D02*
X13364943Y-12474650D01*
X13364943Y-12474650D02*
X13383991Y-12484174D01*
X13383991Y-12484174D02*
X13393515Y-12503222D01*
X13393515Y-12503222D02*
X13393515Y-12607984D01*
X13783991Y-12398460D02*
X13612563Y-12655603D01*
X14041134Y-12407984D02*
X14060182Y-12407984D01*
X14060182Y-12407984D02*
X14079229Y-12417508D01*
X14079229Y-12417508D02*
X14088753Y-12427031D01*
X14088753Y-12427031D02*
X14098277Y-12446079D01*
X14098277Y-12446079D02*
X14107801Y-12484174D01*
X14107801Y-12484174D02*
X14107801Y-12531793D01*
X14107801Y-12531793D02*
X14098277Y-12569888D01*
X14098277Y-12569888D02*
X14088753Y-12588936D01*
X14088753Y-12588936D02*
X14079229Y-12598460D01*
X14079229Y-12598460D02*
X14060182Y-12607984D01*
X14060182Y-12607984D02*
X14041134Y-12607984D01*
X14041134Y-12607984D02*
X14022086Y-12598460D01*
X14022086Y-12598460D02*
X14012563Y-12588936D01*
X14012563Y-12588936D02*
X14003039Y-12569888D01*
X14003039Y-12569888D02*
X13993515Y-12531793D01*
X13993515Y-12531793D02*
X13993515Y-12484174D01*
X13993515Y-12484174D02*
X14003039Y-12446079D01*
X14003039Y-12446079D02*
X14012563Y-12427031D01*
X14012563Y-12427031D02*
X14022086Y-12417508D01*
X14022086Y-12417508D02*
X14041134Y-12407984D01*
X14193515Y-12588936D02*
X14203039Y-12598460D01*
X14203039Y-12598460D02*
X14193515Y-12607984D01*
X14193515Y-12607984D02*
X14183991Y-12598460D01*
X14183991Y-12598460D02*
X14193515Y-12588936D01*
X14193515Y-12588936D02*
X14193515Y-12607984D01*
X14326848Y-12407984D02*
X14345896Y-12407984D01*
X14345896Y-12407984D02*
X14364944Y-12417508D01*
X14364944Y-12417508D02*
X14374467Y-12427031D01*
X14374467Y-12427031D02*
X14383991Y-12446079D01*
X14383991Y-12446079D02*
X14393515Y-12484174D01*
X14393515Y-12484174D02*
X14393515Y-12531793D01*
X14393515Y-12531793D02*
X14383991Y-12569888D01*
X14383991Y-12569888D02*
X14374467Y-12588936D01*
X14374467Y-12588936D02*
X14364944Y-12598460D01*
X14364944Y-12598460D02*
X14345896Y-12607984D01*
X14345896Y-12607984D02*
X14326848Y-12607984D01*
X14326848Y-12607984D02*
X14307801Y-12598460D01*
X14307801Y-12598460D02*
X14298277Y-12588936D01*
X14298277Y-12588936D02*
X14288753Y-12569888D01*
X14288753Y-12569888D02*
X14279229Y-12531793D01*
X14279229Y-12531793D02*
X14279229Y-12484174D01*
X14279229Y-12484174D02*
X14288753Y-12446079D01*
X14288753Y-12446079D02*
X14298277Y-12427031D01*
X14298277Y-12427031D02*
X14307801Y-12417508D01*
X14307801Y-12417508D02*
X14326848Y-12407984D01*
X14469706Y-12427031D02*
X14479229Y-12417508D01*
X14479229Y-12417508D02*
X14498277Y-12407984D01*
X14498277Y-12407984D02*
X14545896Y-12407984D01*
X14545896Y-12407984D02*
X14564944Y-12417508D01*
X14564944Y-12417508D02*
X14574467Y-12427031D01*
X14574467Y-12427031D02*
X14583991Y-12446079D01*
X14583991Y-12446079D02*
X14583991Y-12465127D01*
X14583991Y-12465127D02*
X14574467Y-12493698D01*
X14574467Y-12493698D02*
X14460182Y-12607984D01*
X14460182Y-12607984D02*
X14583991Y-12607984D01*
X14650658Y-12407984D02*
X14774467Y-12407984D01*
X14774467Y-12407984D02*
X14707801Y-12484174D01*
X14707801Y-12484174D02*
X14736372Y-12484174D01*
X14736372Y-12484174D02*
X14755420Y-12493698D01*
X14755420Y-12493698D02*
X14764944Y-12503222D01*
X14764944Y-12503222D02*
X14774467Y-12522269D01*
X14774467Y-12522269D02*
X14774467Y-12569888D01*
X14774467Y-12569888D02*
X14764944Y-12588936D01*
X14764944Y-12588936D02*
X14755420Y-12598460D01*
X14755420Y-12598460D02*
X14736372Y-12607984D01*
X14736372Y-12607984D02*
X14679229Y-12607984D01*
X14679229Y-12607984D02*
X14660182Y-12598460D01*
X14660182Y-12598460D02*
X14650658Y-12588936D01*
X14945896Y-12407984D02*
X14907801Y-12407984D01*
X14907801Y-12407984D02*
X14888753Y-12417508D01*
X14888753Y-12417508D02*
X14879229Y-12427031D01*
X14879229Y-12427031D02*
X14860182Y-12455603D01*
X14860182Y-12455603D02*
X14850658Y-12493698D01*
X14850658Y-12493698D02*
X14850658Y-12569888D01*
X14850658Y-12569888D02*
X14860182Y-12588936D01*
X14860182Y-12588936D02*
X14869706Y-12598460D01*
X14869706Y-12598460D02*
X14888753Y-12607984D01*
X14888753Y-12607984D02*
X14926848Y-12607984D01*
X14926848Y-12607984D02*
X14945896Y-12598460D01*
X14945896Y-12598460D02*
X14955420Y-12588936D01*
X14955420Y-12588936D02*
X14964944Y-12569888D01*
X14964944Y-12569888D02*
X14964944Y-12522269D01*
X14964944Y-12522269D02*
X14955420Y-12503222D01*
X14955420Y-12503222D02*
X14945896Y-12493698D01*
X14945896Y-12493698D02*
X14926848Y-12484174D01*
X14926848Y-12484174D02*
X14888753Y-12484174D01*
X14888753Y-12484174D02*
X14869706Y-12493698D01*
X14869706Y-12493698D02*
X14860182Y-12503222D01*
X14860182Y-12503222D02*
X14850658Y-12522269D01*
X15041134Y-12407984D02*
X15041134Y-12446079D01*
X15117325Y-12407984D02*
X15117325Y-12446079D01*
X15412563Y-12684174D02*
X15403039Y-12674650D01*
X15403039Y-12674650D02*
X15383991Y-12646079D01*
X15383991Y-12646079D02*
X15374468Y-12627031D01*
X15374468Y-12627031D02*
X15364944Y-12598460D01*
X15364944Y-12598460D02*
X15355420Y-12550841D01*
X15355420Y-12550841D02*
X15355420Y-12512746D01*
X15355420Y-12512746D02*
X15364944Y-12465127D01*
X15364944Y-12465127D02*
X15374468Y-12436555D01*
X15374468Y-12436555D02*
X15383991Y-12417508D01*
X15383991Y-12417508D02*
X15403039Y-12388936D01*
X15403039Y-12388936D02*
X15412563Y-12379412D01*
X15526848Y-12407984D02*
X15545896Y-12407984D01*
X15545896Y-12407984D02*
X15564944Y-12417508D01*
X15564944Y-12417508D02*
X15574468Y-12427031D01*
X15574468Y-12427031D02*
X15583991Y-12446079D01*
X15583991Y-12446079D02*
X15593515Y-12484174D01*
X15593515Y-12484174D02*
X15593515Y-12531793D01*
X15593515Y-12531793D02*
X15583991Y-12569888D01*
X15583991Y-12569888D02*
X15574468Y-12588936D01*
X15574468Y-12588936D02*
X15564944Y-12598460D01*
X15564944Y-12598460D02*
X15545896Y-12607984D01*
X15545896Y-12607984D02*
X15526848Y-12607984D01*
X15526848Y-12607984D02*
X15507801Y-12598460D01*
X15507801Y-12598460D02*
X15498277Y-12588936D01*
X15498277Y-12588936D02*
X15488753Y-12569888D01*
X15488753Y-12569888D02*
X15479229Y-12531793D01*
X15479229Y-12531793D02*
X15479229Y-12484174D01*
X15479229Y-12484174D02*
X15488753Y-12446079D01*
X15488753Y-12446079D02*
X15498277Y-12427031D01*
X15498277Y-12427031D02*
X15507801Y-12417508D01*
X15507801Y-12417508D02*
X15526848Y-12407984D01*
X15831610Y-12607984D02*
X15831610Y-12407984D01*
X15917325Y-12607984D02*
X15917325Y-12503222D01*
X15917325Y-12503222D02*
X15907801Y-12484174D01*
X15907801Y-12484174D02*
X15888753Y-12474650D01*
X15888753Y-12474650D02*
X15860182Y-12474650D01*
X15860182Y-12474650D02*
X15841134Y-12484174D01*
X15841134Y-12484174D02*
X15831610Y-12493698D01*
X16041134Y-12607984D02*
X16022087Y-12598460D01*
X16022087Y-12598460D02*
X16012563Y-12588936D01*
X16012563Y-12588936D02*
X16003039Y-12569888D01*
X16003039Y-12569888D02*
X16003039Y-12512746D01*
X16003039Y-12512746D02*
X16012563Y-12493698D01*
X16012563Y-12493698D02*
X16022087Y-12484174D01*
X16022087Y-12484174D02*
X16041134Y-12474650D01*
X16041134Y-12474650D02*
X16069706Y-12474650D01*
X16069706Y-12474650D02*
X16088753Y-12484174D01*
X16088753Y-12484174D02*
X16098277Y-12493698D01*
X16098277Y-12493698D02*
X16107801Y-12512746D01*
X16107801Y-12512746D02*
X16107801Y-12569888D01*
X16107801Y-12569888D02*
X16098277Y-12588936D01*
X16098277Y-12588936D02*
X16088753Y-12598460D01*
X16088753Y-12598460D02*
X16069706Y-12607984D01*
X16069706Y-12607984D02*
X16041134Y-12607984D01*
X16222087Y-12607984D02*
X16203039Y-12598460D01*
X16203039Y-12598460D02*
X16193515Y-12579412D01*
X16193515Y-12579412D02*
X16193515Y-12407984D01*
X16374468Y-12598460D02*
X16355420Y-12607984D01*
X16355420Y-12607984D02*
X16317325Y-12607984D01*
X16317325Y-12607984D02*
X16298277Y-12598460D01*
X16298277Y-12598460D02*
X16288753Y-12579412D01*
X16288753Y-12579412D02*
X16288753Y-12503222D01*
X16288753Y-12503222D02*
X16298277Y-12484174D01*
X16298277Y-12484174D02*
X16317325Y-12474650D01*
X16317325Y-12474650D02*
X16355420Y-12474650D01*
X16355420Y-12474650D02*
X16374468Y-12484174D01*
X16374468Y-12484174D02*
X16383991Y-12503222D01*
X16383991Y-12503222D02*
X16383991Y-12522269D01*
X16383991Y-12522269D02*
X16288753Y-12541317D01*
X16460182Y-12598460D02*
X16479230Y-12607984D01*
X16479230Y-12607984D02*
X16517325Y-12607984D01*
X16517325Y-12607984D02*
X16536372Y-12598460D01*
X16536372Y-12598460D02*
X16545896Y-12579412D01*
X16545896Y-12579412D02*
X16545896Y-12569888D01*
X16545896Y-12569888D02*
X16536372Y-12550841D01*
X16536372Y-12550841D02*
X16517325Y-12541317D01*
X16517325Y-12541317D02*
X16488753Y-12541317D01*
X16488753Y-12541317D02*
X16469706Y-12531793D01*
X16469706Y-12531793D02*
X16460182Y-12512746D01*
X16460182Y-12512746D02*
X16460182Y-12503222D01*
X16460182Y-12503222D02*
X16469706Y-12484174D01*
X16469706Y-12484174D02*
X16488753Y-12474650D01*
X16488753Y-12474650D02*
X16517325Y-12474650D01*
X16517325Y-12474650D02*
X16536372Y-12484174D01*
X16783992Y-12531793D02*
X16936373Y-12531793D01*
X16860182Y-12607984D02*
X16860182Y-12455603D01*
X17174468Y-12427031D02*
X17183992Y-12417508D01*
X17183992Y-12417508D02*
X17203039Y-12407984D01*
X17203039Y-12407984D02*
X17250658Y-12407984D01*
X17250658Y-12407984D02*
X17269706Y-12417508D01*
X17269706Y-12417508D02*
X17279230Y-12427031D01*
X17279230Y-12427031D02*
X17288754Y-12446079D01*
X17288754Y-12446079D02*
X17288754Y-12465127D01*
X17288754Y-12465127D02*
X17279230Y-12493698D01*
X17279230Y-12493698D02*
X17164944Y-12607984D01*
X17164944Y-12607984D02*
X17288754Y-12607984D01*
X17517325Y-12598460D02*
X17536373Y-12607984D01*
X17536373Y-12607984D02*
X17574468Y-12607984D01*
X17574468Y-12607984D02*
X17593516Y-12598460D01*
X17593516Y-12598460D02*
X17603039Y-12579412D01*
X17603039Y-12579412D02*
X17603039Y-12569888D01*
X17603039Y-12569888D02*
X17593516Y-12550841D01*
X17593516Y-12550841D02*
X17574468Y-12541317D01*
X17574468Y-12541317D02*
X17545896Y-12541317D01*
X17545896Y-12541317D02*
X17526849Y-12531793D01*
X17526849Y-12531793D02*
X17517325Y-12512746D01*
X17517325Y-12512746D02*
X17517325Y-12503222D01*
X17517325Y-12503222D02*
X17526849Y-12484174D01*
X17526849Y-12484174D02*
X17545896Y-12474650D01*
X17545896Y-12474650D02*
X17574468Y-12474650D01*
X17574468Y-12474650D02*
X17593516Y-12484174D01*
X17717325Y-12607984D02*
X17698277Y-12598460D01*
X17698277Y-12598460D02*
X17688754Y-12579412D01*
X17688754Y-12579412D02*
X17688754Y-12407984D01*
X17822087Y-12607984D02*
X17803039Y-12598460D01*
X17803039Y-12598460D02*
X17793516Y-12588936D01*
X17793516Y-12588936D02*
X17783992Y-12569888D01*
X17783992Y-12569888D02*
X17783992Y-12512746D01*
X17783992Y-12512746D02*
X17793516Y-12493698D01*
X17793516Y-12493698D02*
X17803039Y-12484174D01*
X17803039Y-12484174D02*
X17822087Y-12474650D01*
X17822087Y-12474650D02*
X17850658Y-12474650D01*
X17850658Y-12474650D02*
X17869706Y-12484174D01*
X17869706Y-12484174D02*
X17879230Y-12493698D01*
X17879230Y-12493698D02*
X17888754Y-12512746D01*
X17888754Y-12512746D02*
X17888754Y-12569888D01*
X17888754Y-12569888D02*
X17879230Y-12588936D01*
X17879230Y-12588936D02*
X17869706Y-12598460D01*
X17869706Y-12598460D02*
X17850658Y-12607984D01*
X17850658Y-12607984D02*
X17822087Y-12607984D01*
X17945897Y-12474650D02*
X18022087Y-12474650D01*
X17974468Y-12407984D02*
X17974468Y-12579412D01*
X17974468Y-12579412D02*
X17983992Y-12598460D01*
X17983992Y-12598460D02*
X18003039Y-12607984D01*
X18003039Y-12607984D02*
X18022087Y-12607984D01*
X18079230Y-12598460D02*
X18098277Y-12607984D01*
X18098277Y-12607984D02*
X18136373Y-12607984D01*
X18136373Y-12607984D02*
X18155420Y-12598460D01*
X18155420Y-12598460D02*
X18164944Y-12579412D01*
X18164944Y-12579412D02*
X18164944Y-12569888D01*
X18164944Y-12569888D02*
X18155420Y-12550841D01*
X18155420Y-12550841D02*
X18136373Y-12541317D01*
X18136373Y-12541317D02*
X18107801Y-12541317D01*
X18107801Y-12541317D02*
X18088754Y-12531793D01*
X18088754Y-12531793D02*
X18079230Y-12512746D01*
X18079230Y-12512746D02*
X18079230Y-12503222D01*
X18079230Y-12503222D02*
X18088754Y-12484174D01*
X18088754Y-12484174D02*
X18107801Y-12474650D01*
X18107801Y-12474650D02*
X18136373Y-12474650D01*
X18136373Y-12474650D02*
X18155420Y-12484174D01*
X18231611Y-12684174D02*
X18241135Y-12674650D01*
X18241135Y-12674650D02*
X18260182Y-12646079D01*
X18260182Y-12646079D02*
X18269706Y-12627031D01*
X18269706Y-12627031D02*
X18279230Y-12598460D01*
X18279230Y-12598460D02*
X18288754Y-12550841D01*
X18288754Y-12550841D02*
X18288754Y-12512746D01*
X18288754Y-12512746D02*
X18279230Y-12465127D01*
X18279230Y-12465127D02*
X18269706Y-12436555D01*
X18269706Y-12436555D02*
X18260182Y-12417508D01*
X18260182Y-12417508D02*
X18241135Y-12388936D01*
X18241135Y-12388936D02*
X18231611Y-12379412D01*
D11*
X11805000Y-12748000D02*
X11805000Y-12813000D01*
X11772500Y-12780500D02*
X11837500Y-12780500D01*
D12*
X12136372Y-12671984D02*
X12155420Y-12671984D01*
X12155420Y-12671984D02*
X12174467Y-12681508D01*
X12174467Y-12681508D02*
X12183991Y-12691031D01*
X12183991Y-12691031D02*
X12193515Y-12710079D01*
X12193515Y-12710079D02*
X12203039Y-12748174D01*
X12203039Y-12748174D02*
X12203039Y-12795793D01*
X12203039Y-12795793D02*
X12193515Y-12833888D01*
X12193515Y-12833888D02*
X12183991Y-12852936D01*
X12183991Y-12852936D02*
X12174467Y-12862460D01*
X12174467Y-12862460D02*
X12155420Y-12871984D01*
X12155420Y-12871984D02*
X12136372Y-12871984D01*
X12136372Y-12871984D02*
X12117324Y-12862460D01*
X12117324Y-12862460D02*
X12107801Y-12852936D01*
X12107801Y-12852936D02*
X12098277Y-12833888D01*
X12098277Y-12833888D02*
X12088753Y-12795793D01*
X12088753Y-12795793D02*
X12088753Y-12748174D01*
X12088753Y-12748174D02*
X12098277Y-12710079D01*
X12098277Y-12710079D02*
X12107801Y-12691031D01*
X12107801Y-12691031D02*
X12117324Y-12681508D01*
X12117324Y-12681508D02*
X12136372Y-12671984D01*
X12288753Y-12852936D02*
X12298277Y-12862460D01*
X12298277Y-12862460D02*
X12288753Y-12871984D01*
X12288753Y-12871984D02*
X12279229Y-12862460D01*
X12279229Y-12862460D02*
X12288753Y-12852936D01*
X12288753Y-12852936D02*
X12288753Y-12871984D01*
X12469705Y-12671984D02*
X12431610Y-12671984D01*
X12431610Y-12671984D02*
X12412562Y-12681508D01*
X12412562Y-12681508D02*
X12403039Y-12691031D01*
X12403039Y-12691031D02*
X12383991Y-12719603D01*
X12383991Y-12719603D02*
X12374467Y-12757698D01*
X12374467Y-12757698D02*
X12374467Y-12833888D01*
X12374467Y-12833888D02*
X12383991Y-12852936D01*
X12383991Y-12852936D02*
X12393515Y-12862460D01*
X12393515Y-12862460D02*
X12412562Y-12871984D01*
X12412562Y-12871984D02*
X12450658Y-12871984D01*
X12450658Y-12871984D02*
X12469705Y-12862460D01*
X12469705Y-12862460D02*
X12479229Y-12852936D01*
X12479229Y-12852936D02*
X12488753Y-12833888D01*
X12488753Y-12833888D02*
X12488753Y-12786269D01*
X12488753Y-12786269D02*
X12479229Y-12767222D01*
X12479229Y-12767222D02*
X12469705Y-12757698D01*
X12469705Y-12757698D02*
X12450658Y-12748174D01*
X12450658Y-12748174D02*
X12412562Y-12748174D01*
X12412562Y-12748174D02*
X12393515Y-12757698D01*
X12393515Y-12757698D02*
X12383991Y-12767222D01*
X12383991Y-12767222D02*
X12374467Y-12786269D01*
X12669705Y-12671984D02*
X12574467Y-12671984D01*
X12574467Y-12671984D02*
X12564943Y-12767222D01*
X12564943Y-12767222D02*
X12574467Y-12757698D01*
X12574467Y-12757698D02*
X12593515Y-12748174D01*
X12593515Y-12748174D02*
X12641134Y-12748174D01*
X12641134Y-12748174D02*
X12660182Y-12757698D01*
X12660182Y-12757698D02*
X12669705Y-12767222D01*
X12669705Y-12767222D02*
X12679229Y-12786269D01*
X12679229Y-12786269D02*
X12679229Y-12833888D01*
X12679229Y-12833888D02*
X12669705Y-12852936D01*
X12669705Y-12852936D02*
X12660182Y-12862460D01*
X12660182Y-12862460D02*
X12641134Y-12871984D01*
X12641134Y-12871984D02*
X12593515Y-12871984D01*
X12593515Y-12871984D02*
X12574467Y-12862460D01*
X12574467Y-12862460D02*
X12564943Y-12852936D01*
X12803039Y-12671984D02*
X12822086Y-12671984D01*
X12822086Y-12671984D02*
X12841134Y-12681508D01*
X12841134Y-12681508D02*
X12850658Y-12691031D01*
X12850658Y-12691031D02*
X12860182Y-12710079D01*
X12860182Y-12710079D02*
X12869705Y-12748174D01*
X12869705Y-12748174D02*
X12869705Y-12795793D01*
X12869705Y-12795793D02*
X12860182Y-12833888D01*
X12860182Y-12833888D02*
X12850658Y-12852936D01*
X12850658Y-12852936D02*
X12841134Y-12862460D01*
X12841134Y-12862460D02*
X12822086Y-12871984D01*
X12822086Y-12871984D02*
X12803039Y-12871984D01*
X12803039Y-12871984D02*
X12783991Y-12862460D01*
X12783991Y-12862460D02*
X12774467Y-12852936D01*
X12774467Y-12852936D02*
X12764943Y-12833888D01*
X12764943Y-12833888D02*
X12755420Y-12795793D01*
X12755420Y-12795793D02*
X12755420Y-12748174D01*
X12755420Y-12748174D02*
X12764943Y-12710079D01*
X12764943Y-12710079D02*
X12774467Y-12691031D01*
X12774467Y-12691031D02*
X12783991Y-12681508D01*
X12783991Y-12681508D02*
X12803039Y-12671984D01*
X12955420Y-12871984D02*
X12955420Y-12738650D01*
X12955420Y-12757698D02*
X12964943Y-12748174D01*
X12964943Y-12748174D02*
X12983991Y-12738650D01*
X12983991Y-12738650D02*
X13012563Y-12738650D01*
X13012563Y-12738650D02*
X13031610Y-12748174D01*
X13031610Y-12748174D02*
X13041134Y-12767222D01*
X13041134Y-12767222D02*
X13041134Y-12871984D01*
X13041134Y-12767222D02*
X13050658Y-12748174D01*
X13050658Y-12748174D02*
X13069705Y-12738650D01*
X13069705Y-12738650D02*
X13098277Y-12738650D01*
X13098277Y-12738650D02*
X13117324Y-12748174D01*
X13117324Y-12748174D02*
X13126848Y-12767222D01*
X13126848Y-12767222D02*
X13126848Y-12871984D01*
X13222086Y-12871984D02*
X13222086Y-12738650D01*
X13222086Y-12757698D02*
X13231610Y-12748174D01*
X13231610Y-12748174D02*
X13250658Y-12738650D01*
X13250658Y-12738650D02*
X13279229Y-12738650D01*
X13279229Y-12738650D02*
X13298277Y-12748174D01*
X13298277Y-12748174D02*
X13307801Y-12767222D01*
X13307801Y-12767222D02*
X13307801Y-12871984D01*
X13307801Y-12767222D02*
X13317324Y-12748174D01*
X13317324Y-12748174D02*
X13336372Y-12738650D01*
X13336372Y-12738650D02*
X13364943Y-12738650D01*
X13364943Y-12738650D02*
X13383991Y-12748174D01*
X13383991Y-12748174D02*
X13393515Y-12767222D01*
X13393515Y-12767222D02*
X13393515Y-12871984D01*
X13783991Y-12662460D02*
X13612563Y-12919603D01*
X14041134Y-12671984D02*
X14060182Y-12671984D01*
X14060182Y-12671984D02*
X14079229Y-12681508D01*
X14079229Y-12681508D02*
X14088753Y-12691031D01*
X14088753Y-12691031D02*
X14098277Y-12710079D01*
X14098277Y-12710079D02*
X14107801Y-12748174D01*
X14107801Y-12748174D02*
X14107801Y-12795793D01*
X14107801Y-12795793D02*
X14098277Y-12833888D01*
X14098277Y-12833888D02*
X14088753Y-12852936D01*
X14088753Y-12852936D02*
X14079229Y-12862460D01*
X14079229Y-12862460D02*
X14060182Y-12871984D01*
X14060182Y-12871984D02*
X14041134Y-12871984D01*
X14041134Y-12871984D02*
X14022086Y-12862460D01*
X14022086Y-12862460D02*
X14012563Y-12852936D01*
X14012563Y-12852936D02*
X14003039Y-12833888D01*
X14003039Y-12833888D02*
X13993515Y-12795793D01*
X13993515Y-12795793D02*
X13993515Y-12748174D01*
X13993515Y-12748174D02*
X14003039Y-12710079D01*
X14003039Y-12710079D02*
X14012563Y-12691031D01*
X14012563Y-12691031D02*
X14022086Y-12681508D01*
X14022086Y-12681508D02*
X14041134Y-12671984D01*
X14193515Y-12852936D02*
X14203039Y-12862460D01*
X14203039Y-12862460D02*
X14193515Y-12871984D01*
X14193515Y-12871984D02*
X14183991Y-12862460D01*
X14183991Y-12862460D02*
X14193515Y-12852936D01*
X14193515Y-12852936D02*
X14193515Y-12871984D01*
X14326848Y-12671984D02*
X14345896Y-12671984D01*
X14345896Y-12671984D02*
X14364944Y-12681508D01*
X14364944Y-12681508D02*
X14374467Y-12691031D01*
X14374467Y-12691031D02*
X14383991Y-12710079D01*
X14383991Y-12710079D02*
X14393515Y-12748174D01*
X14393515Y-12748174D02*
X14393515Y-12795793D01*
X14393515Y-12795793D02*
X14383991Y-12833888D01*
X14383991Y-12833888D02*
X14374467Y-12852936D01*
X14374467Y-12852936D02*
X14364944Y-12862460D01*
X14364944Y-12862460D02*
X14345896Y-12871984D01*
X14345896Y-12871984D02*
X14326848Y-12871984D01*
X14326848Y-12871984D02*
X14307801Y-12862460D01*
X14307801Y-12862460D02*
X14298277Y-12852936D01*
X14298277Y-12852936D02*
X14288753Y-12833888D01*
X14288753Y-12833888D02*
X14279229Y-12795793D01*
X14279229Y-12795793D02*
X14279229Y-12748174D01*
X14279229Y-12748174D02*
X14288753Y-12710079D01*
X14288753Y-12710079D02*
X14298277Y-12691031D01*
X14298277Y-12691031D02*
X14307801Y-12681508D01*
X14307801Y-12681508D02*
X14326848Y-12671984D01*
X14469706Y-12691031D02*
X14479229Y-12681508D01*
X14479229Y-12681508D02*
X14498277Y-12671984D01*
X14498277Y-12671984D02*
X14545896Y-12671984D01*
X14545896Y-12671984D02*
X14564944Y-12681508D01*
X14564944Y-12681508D02*
X14574467Y-12691031D01*
X14574467Y-12691031D02*
X14583991Y-12710079D01*
X14583991Y-12710079D02*
X14583991Y-12729127D01*
X14583991Y-12729127D02*
X14574467Y-12757698D01*
X14574467Y-12757698D02*
X14460182Y-12871984D01*
X14460182Y-12871984D02*
X14583991Y-12871984D01*
X14764944Y-12671984D02*
X14669706Y-12671984D01*
X14669706Y-12671984D02*
X14660182Y-12767222D01*
X14660182Y-12767222D02*
X14669706Y-12757698D01*
X14669706Y-12757698D02*
X14688753Y-12748174D01*
X14688753Y-12748174D02*
X14736372Y-12748174D01*
X14736372Y-12748174D02*
X14755420Y-12757698D01*
X14755420Y-12757698D02*
X14764944Y-12767222D01*
X14764944Y-12767222D02*
X14774467Y-12786269D01*
X14774467Y-12786269D02*
X14774467Y-12833888D01*
X14774467Y-12833888D02*
X14764944Y-12852936D01*
X14764944Y-12852936D02*
X14755420Y-12862460D01*
X14755420Y-12862460D02*
X14736372Y-12871984D01*
X14736372Y-12871984D02*
X14688753Y-12871984D01*
X14688753Y-12871984D02*
X14669706Y-12862460D01*
X14669706Y-12862460D02*
X14660182Y-12852936D01*
X14945896Y-12671984D02*
X14907801Y-12671984D01*
X14907801Y-12671984D02*
X14888753Y-12681508D01*
X14888753Y-12681508D02*
X14879229Y-12691031D01*
X14879229Y-12691031D02*
X14860182Y-12719603D01*
X14860182Y-12719603D02*
X14850658Y-12757698D01*
X14850658Y-12757698D02*
X14850658Y-12833888D01*
X14850658Y-12833888D02*
X14860182Y-12852936D01*
X14860182Y-12852936D02*
X14869706Y-12862460D01*
X14869706Y-12862460D02*
X14888753Y-12871984D01*
X14888753Y-12871984D02*
X14926848Y-12871984D01*
X14926848Y-12871984D02*
X14945896Y-12862460D01*
X14945896Y-12862460D02*
X14955420Y-12852936D01*
X14955420Y-12852936D02*
X14964944Y-12833888D01*
X14964944Y-12833888D02*
X14964944Y-12786269D01*
X14964944Y-12786269D02*
X14955420Y-12767222D01*
X14955420Y-12767222D02*
X14945896Y-12757698D01*
X14945896Y-12757698D02*
X14926848Y-12748174D01*
X14926848Y-12748174D02*
X14888753Y-12748174D01*
X14888753Y-12748174D02*
X14869706Y-12757698D01*
X14869706Y-12757698D02*
X14860182Y-12767222D01*
X14860182Y-12767222D02*
X14850658Y-12786269D01*
X15041134Y-12671984D02*
X15041134Y-12710079D01*
X15117325Y-12671984D02*
X15117325Y-12710079D01*
X15412563Y-12948174D02*
X15403039Y-12938650D01*
X15403039Y-12938650D02*
X15383991Y-12910079D01*
X15383991Y-12910079D02*
X15374468Y-12891031D01*
X15374468Y-12891031D02*
X15364944Y-12862460D01*
X15364944Y-12862460D02*
X15355420Y-12814841D01*
X15355420Y-12814841D02*
X15355420Y-12776746D01*
X15355420Y-12776746D02*
X15364944Y-12729127D01*
X15364944Y-12729127D02*
X15374468Y-12700555D01*
X15374468Y-12700555D02*
X15383991Y-12681508D01*
X15383991Y-12681508D02*
X15403039Y-12652936D01*
X15403039Y-12652936D02*
X15412563Y-12643412D01*
X15526848Y-12671984D02*
X15545896Y-12671984D01*
X15545896Y-12671984D02*
X15564944Y-12681508D01*
X15564944Y-12681508D02*
X15574468Y-12691031D01*
X15574468Y-12691031D02*
X15583991Y-12710079D01*
X15583991Y-12710079D02*
X15593515Y-12748174D01*
X15593515Y-12748174D02*
X15593515Y-12795793D01*
X15593515Y-12795793D02*
X15583991Y-12833888D01*
X15583991Y-12833888D02*
X15574468Y-12852936D01*
X15574468Y-12852936D02*
X15564944Y-12862460D01*
X15564944Y-12862460D02*
X15545896Y-12871984D01*
X15545896Y-12871984D02*
X15526848Y-12871984D01*
X15526848Y-12871984D02*
X15507801Y-12862460D01*
X15507801Y-12862460D02*
X15498277Y-12852936D01*
X15498277Y-12852936D02*
X15488753Y-12833888D01*
X15488753Y-12833888D02*
X15479229Y-12795793D01*
X15479229Y-12795793D02*
X15479229Y-12748174D01*
X15479229Y-12748174D02*
X15488753Y-12710079D01*
X15488753Y-12710079D02*
X15498277Y-12691031D01*
X15498277Y-12691031D02*
X15507801Y-12681508D01*
X15507801Y-12681508D02*
X15526848Y-12671984D01*
X15831610Y-12871984D02*
X15831610Y-12671984D01*
X15917325Y-12871984D02*
X15917325Y-12767222D01*
X15917325Y-12767222D02*
X15907801Y-12748174D01*
X15907801Y-12748174D02*
X15888753Y-12738650D01*
X15888753Y-12738650D02*
X15860182Y-12738650D01*
X15860182Y-12738650D02*
X15841134Y-12748174D01*
X15841134Y-12748174D02*
X15831610Y-12757698D01*
X16041134Y-12871984D02*
X16022087Y-12862460D01*
X16022087Y-12862460D02*
X16012563Y-12852936D01*
X16012563Y-12852936D02*
X16003039Y-12833888D01*
X16003039Y-12833888D02*
X16003039Y-12776746D01*
X16003039Y-12776746D02*
X16012563Y-12757698D01*
X16012563Y-12757698D02*
X16022087Y-12748174D01*
X16022087Y-12748174D02*
X16041134Y-12738650D01*
X16041134Y-12738650D02*
X16069706Y-12738650D01*
X16069706Y-12738650D02*
X16088753Y-12748174D01*
X16088753Y-12748174D02*
X16098277Y-12757698D01*
X16098277Y-12757698D02*
X16107801Y-12776746D01*
X16107801Y-12776746D02*
X16107801Y-12833888D01*
X16107801Y-12833888D02*
X16098277Y-12852936D01*
X16098277Y-12852936D02*
X16088753Y-12862460D01*
X16088753Y-12862460D02*
X16069706Y-12871984D01*
X16069706Y-12871984D02*
X16041134Y-12871984D01*
X16222087Y-12871984D02*
X16203039Y-12862460D01*
X16203039Y-12862460D02*
X16193515Y-12843412D01*
X16193515Y-12843412D02*
X16193515Y-12671984D01*
X16374468Y-12862460D02*
X16355420Y-12871984D01*
X16355420Y-12871984D02*
X16317325Y-12871984D01*
X16317325Y-12871984D02*
X16298277Y-12862460D01*
X16298277Y-12862460D02*
X16288753Y-12843412D01*
X16288753Y-12843412D02*
X16288753Y-12767222D01*
X16288753Y-12767222D02*
X16298277Y-12748174D01*
X16298277Y-12748174D02*
X16317325Y-12738650D01*
X16317325Y-12738650D02*
X16355420Y-12738650D01*
X16355420Y-12738650D02*
X16374468Y-12748174D01*
X16374468Y-12748174D02*
X16383991Y-12767222D01*
X16383991Y-12767222D02*
X16383991Y-12786269D01*
X16383991Y-12786269D02*
X16288753Y-12805317D01*
X16460182Y-12862460D02*
X16479230Y-12871984D01*
X16479230Y-12871984D02*
X16517325Y-12871984D01*
X16517325Y-12871984D02*
X16536372Y-12862460D01*
X16536372Y-12862460D02*
X16545896Y-12843412D01*
X16545896Y-12843412D02*
X16545896Y-12833888D01*
X16545896Y-12833888D02*
X16536372Y-12814841D01*
X16536372Y-12814841D02*
X16517325Y-12805317D01*
X16517325Y-12805317D02*
X16488753Y-12805317D01*
X16488753Y-12805317D02*
X16469706Y-12795793D01*
X16469706Y-12795793D02*
X16460182Y-12776746D01*
X16460182Y-12776746D02*
X16460182Y-12767222D01*
X16460182Y-12767222D02*
X16469706Y-12748174D01*
X16469706Y-12748174D02*
X16488753Y-12738650D01*
X16488753Y-12738650D02*
X16517325Y-12738650D01*
X16517325Y-12738650D02*
X16536372Y-12748174D01*
X16783992Y-12795793D02*
X16936373Y-12795793D01*
X16860182Y-12871984D02*
X16860182Y-12719603D01*
X17174468Y-12691031D02*
X17183992Y-12681508D01*
X17183992Y-12681508D02*
X17203039Y-12671984D01*
X17203039Y-12671984D02*
X17250658Y-12671984D01*
X17250658Y-12671984D02*
X17269706Y-12681508D01*
X17269706Y-12681508D02*
X17279230Y-12691031D01*
X17279230Y-12691031D02*
X17288754Y-12710079D01*
X17288754Y-12710079D02*
X17288754Y-12729127D01*
X17288754Y-12729127D02*
X17279230Y-12757698D01*
X17279230Y-12757698D02*
X17164944Y-12871984D01*
X17164944Y-12871984D02*
X17288754Y-12871984D01*
X17517325Y-12862460D02*
X17536373Y-12871984D01*
X17536373Y-12871984D02*
X17574468Y-12871984D01*
X17574468Y-12871984D02*
X17593516Y-12862460D01*
X17593516Y-12862460D02*
X17603039Y-12843412D01*
X17603039Y-12843412D02*
X17603039Y-12833888D01*
X17603039Y-12833888D02*
X17593516Y-12814841D01*
X17593516Y-12814841D02*
X17574468Y-12805317D01*
X17574468Y-12805317D02*
X17545896Y-12805317D01*
X17545896Y-12805317D02*
X17526849Y-12795793D01*
X17526849Y-12795793D02*
X17517325Y-12776746D01*
X17517325Y-12776746D02*
X17517325Y-12767222D01*
X17517325Y-12767222D02*
X17526849Y-12748174D01*
X17526849Y-12748174D02*
X17545896Y-12738650D01*
X17545896Y-12738650D02*
X17574468Y-12738650D01*
X17574468Y-12738650D02*
X17593516Y-12748174D01*
X17717325Y-12871984D02*
X17698277Y-12862460D01*
X17698277Y-12862460D02*
X17688754Y-12843412D01*
X17688754Y-12843412D02*
X17688754Y-12671984D01*
X17822087Y-12871984D02*
X17803039Y-12862460D01*
X17803039Y-12862460D02*
X17793516Y-12852936D01*
X17793516Y-12852936D02*
X17783992Y-12833888D01*
X17783992Y-12833888D02*
X17783992Y-12776746D01*
X17783992Y-12776746D02*
X17793516Y-12757698D01*
X17793516Y-12757698D02*
X17803039Y-12748174D01*
X17803039Y-12748174D02*
X17822087Y-12738650D01*
X17822087Y-12738650D02*
X17850658Y-12738650D01*
X17850658Y-12738650D02*
X17869706Y-12748174D01*
X17869706Y-12748174D02*
X17879230Y-12757698D01*
X17879230Y-12757698D02*
X17888754Y-12776746D01*
X17888754Y-12776746D02*
X17888754Y-12833888D01*
X17888754Y-12833888D02*
X17879230Y-12852936D01*
X17879230Y-12852936D02*
X17869706Y-12862460D01*
X17869706Y-12862460D02*
X17850658Y-12871984D01*
X17850658Y-12871984D02*
X17822087Y-12871984D01*
X17945897Y-12738650D02*
X18022087Y-12738650D01*
X17974468Y-12671984D02*
X17974468Y-12843412D01*
X17974468Y-12843412D02*
X17983992Y-12862460D01*
X17983992Y-12862460D02*
X18003039Y-12871984D01*
X18003039Y-12871984D02*
X18022087Y-12871984D01*
X18079230Y-12862460D02*
X18098277Y-12871984D01*
X18098277Y-12871984D02*
X18136373Y-12871984D01*
X18136373Y-12871984D02*
X18155420Y-12862460D01*
X18155420Y-12862460D02*
X18164944Y-12843412D01*
X18164944Y-12843412D02*
X18164944Y-12833888D01*
X18164944Y-12833888D02*
X18155420Y-12814841D01*
X18155420Y-12814841D02*
X18136373Y-12805317D01*
X18136373Y-12805317D02*
X18107801Y-12805317D01*
X18107801Y-12805317D02*
X18088754Y-12795793D01*
X18088754Y-12795793D02*
X18079230Y-12776746D01*
X18079230Y-12776746D02*
X18079230Y-12767222D01*
X18079230Y-12767222D02*
X18088754Y-12748174D01*
X18088754Y-12748174D02*
X18107801Y-12738650D01*
X18107801Y-12738650D02*
X18136373Y-12738650D01*
X18136373Y-12738650D02*
X18155420Y-12748174D01*
X18231611Y-12948174D02*
X18241135Y-12938650D01*
X18241135Y-12938650D02*
X18260182Y-12910079D01*
X18260182Y-12910079D02*
X18269706Y-12891031D01*
X18269706Y-12891031D02*
X18279230Y-12862460D01*
X18279230Y-12862460D02*
X18288754Y-12814841D01*
X18288754Y-12814841D02*
X18288754Y-12776746D01*
X18288754Y-12776746D02*
X18279230Y-12729127D01*
X18279230Y-12729127D02*
X18269706Y-12700555D01*
X18269706Y-12700555D02*
X18260182Y-12681508D01*
X18260182Y-12681508D02*
X18241135Y-12652936D01*
X18241135Y-12652936D02*
X18231611Y-12643412D01*
D11*
X11822856Y-13079856D02*
X11822856Y-13009144D01*
X11752144Y-13009144D01*
X11752144Y-13079856D01*
X11822856Y-13079856D01*
D12*
X12203039Y-13135984D02*
X12088753Y-13135984D01*
X12145896Y-13135984D02*
X12145896Y-12935984D01*
X12145896Y-12935984D02*
X12126848Y-12964555D01*
X12126848Y-12964555D02*
X12107801Y-12983603D01*
X12107801Y-12983603D02*
X12088753Y-12993127D01*
X12288753Y-13116936D02*
X12298277Y-13126460D01*
X12298277Y-13126460D02*
X12288753Y-13135984D01*
X12288753Y-13135984D02*
X12279229Y-13126460D01*
X12279229Y-13126460D02*
X12288753Y-13116936D01*
X12288753Y-13116936D02*
X12288753Y-13135984D01*
X12422086Y-12935984D02*
X12441134Y-12935984D01*
X12441134Y-12935984D02*
X12460182Y-12945508D01*
X12460182Y-12945508D02*
X12469705Y-12955031D01*
X12469705Y-12955031D02*
X12479229Y-12974079D01*
X12479229Y-12974079D02*
X12488753Y-13012174D01*
X12488753Y-13012174D02*
X12488753Y-13059793D01*
X12488753Y-13059793D02*
X12479229Y-13097888D01*
X12479229Y-13097888D02*
X12469705Y-13116936D01*
X12469705Y-13116936D02*
X12460182Y-13126460D01*
X12460182Y-13126460D02*
X12441134Y-13135984D01*
X12441134Y-13135984D02*
X12422086Y-13135984D01*
X12422086Y-13135984D02*
X12403039Y-13126460D01*
X12403039Y-13126460D02*
X12393515Y-13116936D01*
X12393515Y-13116936D02*
X12383991Y-13097888D01*
X12383991Y-13097888D02*
X12374467Y-13059793D01*
X12374467Y-13059793D02*
X12374467Y-13012174D01*
X12374467Y-13012174D02*
X12383991Y-12974079D01*
X12383991Y-12974079D02*
X12393515Y-12955031D01*
X12393515Y-12955031D02*
X12403039Y-12945508D01*
X12403039Y-12945508D02*
X12422086Y-12935984D01*
X12612562Y-12935984D02*
X12631610Y-12935984D01*
X12631610Y-12935984D02*
X12650658Y-12945508D01*
X12650658Y-12945508D02*
X12660182Y-12955031D01*
X12660182Y-12955031D02*
X12669705Y-12974079D01*
X12669705Y-12974079D02*
X12679229Y-13012174D01*
X12679229Y-13012174D02*
X12679229Y-13059793D01*
X12679229Y-13059793D02*
X12669705Y-13097888D01*
X12669705Y-13097888D02*
X12660182Y-13116936D01*
X12660182Y-13116936D02*
X12650658Y-13126460D01*
X12650658Y-13126460D02*
X12631610Y-13135984D01*
X12631610Y-13135984D02*
X12612562Y-13135984D01*
X12612562Y-13135984D02*
X12593515Y-13126460D01*
X12593515Y-13126460D02*
X12583991Y-13116936D01*
X12583991Y-13116936D02*
X12574467Y-13097888D01*
X12574467Y-13097888D02*
X12564943Y-13059793D01*
X12564943Y-13059793D02*
X12564943Y-13012174D01*
X12564943Y-13012174D02*
X12574467Y-12974079D01*
X12574467Y-12974079D02*
X12583991Y-12955031D01*
X12583991Y-12955031D02*
X12593515Y-12945508D01*
X12593515Y-12945508D02*
X12612562Y-12935984D01*
X12803039Y-12935984D02*
X12822086Y-12935984D01*
X12822086Y-12935984D02*
X12841134Y-12945508D01*
X12841134Y-12945508D02*
X12850658Y-12955031D01*
X12850658Y-12955031D02*
X12860182Y-12974079D01*
X12860182Y-12974079D02*
X12869705Y-13012174D01*
X12869705Y-13012174D02*
X12869705Y-13059793D01*
X12869705Y-13059793D02*
X12860182Y-13097888D01*
X12860182Y-13097888D02*
X12850658Y-13116936D01*
X12850658Y-13116936D02*
X12841134Y-13126460D01*
X12841134Y-13126460D02*
X12822086Y-13135984D01*
X12822086Y-13135984D02*
X12803039Y-13135984D01*
X12803039Y-13135984D02*
X12783991Y-13126460D01*
X12783991Y-13126460D02*
X12774467Y-13116936D01*
X12774467Y-13116936D02*
X12764943Y-13097888D01*
X12764943Y-13097888D02*
X12755420Y-13059793D01*
X12755420Y-13059793D02*
X12755420Y-13012174D01*
X12755420Y-13012174D02*
X12764943Y-12974079D01*
X12764943Y-12974079D02*
X12774467Y-12955031D01*
X12774467Y-12955031D02*
X12783991Y-12945508D01*
X12783991Y-12945508D02*
X12803039Y-12935984D01*
X12955420Y-13135984D02*
X12955420Y-13002650D01*
X12955420Y-13021698D02*
X12964943Y-13012174D01*
X12964943Y-13012174D02*
X12983991Y-13002650D01*
X12983991Y-13002650D02*
X13012563Y-13002650D01*
X13012563Y-13002650D02*
X13031610Y-13012174D01*
X13031610Y-13012174D02*
X13041134Y-13031222D01*
X13041134Y-13031222D02*
X13041134Y-13135984D01*
X13041134Y-13031222D02*
X13050658Y-13012174D01*
X13050658Y-13012174D02*
X13069705Y-13002650D01*
X13069705Y-13002650D02*
X13098277Y-13002650D01*
X13098277Y-13002650D02*
X13117324Y-13012174D01*
X13117324Y-13012174D02*
X13126848Y-13031222D01*
X13126848Y-13031222D02*
X13126848Y-13135984D01*
X13222086Y-13135984D02*
X13222086Y-13002650D01*
X13222086Y-13021698D02*
X13231610Y-13012174D01*
X13231610Y-13012174D02*
X13250658Y-13002650D01*
X13250658Y-13002650D02*
X13279229Y-13002650D01*
X13279229Y-13002650D02*
X13298277Y-13012174D01*
X13298277Y-13012174D02*
X13307801Y-13031222D01*
X13307801Y-13031222D02*
X13307801Y-13135984D01*
X13307801Y-13031222D02*
X13317324Y-13012174D01*
X13317324Y-13012174D02*
X13336372Y-13002650D01*
X13336372Y-13002650D02*
X13364943Y-13002650D01*
X13364943Y-13002650D02*
X13383991Y-13012174D01*
X13383991Y-13012174D02*
X13393515Y-13031222D01*
X13393515Y-13031222D02*
X13393515Y-13135984D01*
X13783991Y-12926460D02*
X13612563Y-13183603D01*
X14041134Y-12935984D02*
X14060182Y-12935984D01*
X14060182Y-12935984D02*
X14079229Y-12945508D01*
X14079229Y-12945508D02*
X14088753Y-12955031D01*
X14088753Y-12955031D02*
X14098277Y-12974079D01*
X14098277Y-12974079D02*
X14107801Y-13012174D01*
X14107801Y-13012174D02*
X14107801Y-13059793D01*
X14107801Y-13059793D02*
X14098277Y-13097888D01*
X14098277Y-13097888D02*
X14088753Y-13116936D01*
X14088753Y-13116936D02*
X14079229Y-13126460D01*
X14079229Y-13126460D02*
X14060182Y-13135984D01*
X14060182Y-13135984D02*
X14041134Y-13135984D01*
X14041134Y-13135984D02*
X14022086Y-13126460D01*
X14022086Y-13126460D02*
X14012563Y-13116936D01*
X14012563Y-13116936D02*
X14003039Y-13097888D01*
X14003039Y-13097888D02*
X13993515Y-13059793D01*
X13993515Y-13059793D02*
X13993515Y-13012174D01*
X13993515Y-13012174D02*
X14003039Y-12974079D01*
X14003039Y-12974079D02*
X14012563Y-12955031D01*
X14012563Y-12955031D02*
X14022086Y-12945508D01*
X14022086Y-12945508D02*
X14041134Y-12935984D01*
X14193515Y-13116936D02*
X14203039Y-13126460D01*
X14203039Y-13126460D02*
X14193515Y-13135984D01*
X14193515Y-13135984D02*
X14183991Y-13126460D01*
X14183991Y-13126460D02*
X14193515Y-13116936D01*
X14193515Y-13116936D02*
X14193515Y-13135984D01*
X14326848Y-12935984D02*
X14345896Y-12935984D01*
X14345896Y-12935984D02*
X14364944Y-12945508D01*
X14364944Y-12945508D02*
X14374467Y-12955031D01*
X14374467Y-12955031D02*
X14383991Y-12974079D01*
X14383991Y-12974079D02*
X14393515Y-13012174D01*
X14393515Y-13012174D02*
X14393515Y-13059793D01*
X14393515Y-13059793D02*
X14383991Y-13097888D01*
X14383991Y-13097888D02*
X14374467Y-13116936D01*
X14374467Y-13116936D02*
X14364944Y-13126460D01*
X14364944Y-13126460D02*
X14345896Y-13135984D01*
X14345896Y-13135984D02*
X14326848Y-13135984D01*
X14326848Y-13135984D02*
X14307801Y-13126460D01*
X14307801Y-13126460D02*
X14298277Y-13116936D01*
X14298277Y-13116936D02*
X14288753Y-13097888D01*
X14288753Y-13097888D02*
X14279229Y-13059793D01*
X14279229Y-13059793D02*
X14279229Y-13012174D01*
X14279229Y-13012174D02*
X14288753Y-12974079D01*
X14288753Y-12974079D02*
X14298277Y-12955031D01*
X14298277Y-12955031D02*
X14307801Y-12945508D01*
X14307801Y-12945508D02*
X14326848Y-12935984D01*
X14460182Y-12935984D02*
X14583991Y-12935984D01*
X14583991Y-12935984D02*
X14517325Y-13012174D01*
X14517325Y-13012174D02*
X14545896Y-13012174D01*
X14545896Y-13012174D02*
X14564944Y-13021698D01*
X14564944Y-13021698D02*
X14574467Y-13031222D01*
X14574467Y-13031222D02*
X14583991Y-13050269D01*
X14583991Y-13050269D02*
X14583991Y-13097888D01*
X14583991Y-13097888D02*
X14574467Y-13116936D01*
X14574467Y-13116936D02*
X14564944Y-13126460D01*
X14564944Y-13126460D02*
X14545896Y-13135984D01*
X14545896Y-13135984D02*
X14488753Y-13135984D01*
X14488753Y-13135984D02*
X14469706Y-13126460D01*
X14469706Y-13126460D02*
X14460182Y-13116936D01*
X14679229Y-13135984D02*
X14717325Y-13135984D01*
X14717325Y-13135984D02*
X14736372Y-13126460D01*
X14736372Y-13126460D02*
X14745896Y-13116936D01*
X14745896Y-13116936D02*
X14764944Y-13088365D01*
X14764944Y-13088365D02*
X14774467Y-13050269D01*
X14774467Y-13050269D02*
X14774467Y-12974079D01*
X14774467Y-12974079D02*
X14764944Y-12955031D01*
X14764944Y-12955031D02*
X14755420Y-12945508D01*
X14755420Y-12945508D02*
X14736372Y-12935984D01*
X14736372Y-12935984D02*
X14698277Y-12935984D01*
X14698277Y-12935984D02*
X14679229Y-12945508D01*
X14679229Y-12945508D02*
X14669706Y-12955031D01*
X14669706Y-12955031D02*
X14660182Y-12974079D01*
X14660182Y-12974079D02*
X14660182Y-13021698D01*
X14660182Y-13021698D02*
X14669706Y-13040746D01*
X14669706Y-13040746D02*
X14679229Y-13050269D01*
X14679229Y-13050269D02*
X14698277Y-13059793D01*
X14698277Y-13059793D02*
X14736372Y-13059793D01*
X14736372Y-13059793D02*
X14755420Y-13050269D01*
X14755420Y-13050269D02*
X14764944Y-13040746D01*
X14764944Y-13040746D02*
X14774467Y-13021698D01*
X14945896Y-13002650D02*
X14945896Y-13135984D01*
X14898277Y-12926460D02*
X14850658Y-13069317D01*
X14850658Y-13069317D02*
X14974467Y-13069317D01*
X15041134Y-12935984D02*
X15041134Y-12974079D01*
X15117325Y-12935984D02*
X15117325Y-12974079D01*
X15412563Y-13212174D02*
X15403039Y-13202650D01*
X15403039Y-13202650D02*
X15383991Y-13174079D01*
X15383991Y-13174079D02*
X15374468Y-13155031D01*
X15374468Y-13155031D02*
X15364944Y-13126460D01*
X15364944Y-13126460D02*
X15355420Y-13078841D01*
X15355420Y-13078841D02*
X15355420Y-13040746D01*
X15355420Y-13040746D02*
X15364944Y-12993127D01*
X15364944Y-12993127D02*
X15374468Y-12964555D01*
X15374468Y-12964555D02*
X15383991Y-12945508D01*
X15383991Y-12945508D02*
X15403039Y-12916936D01*
X15403039Y-12916936D02*
X15412563Y-12907412D01*
X15593515Y-13135984D02*
X15479229Y-13135984D01*
X15536372Y-13135984D02*
X15536372Y-12935984D01*
X15536372Y-12935984D02*
X15517325Y-12964555D01*
X15517325Y-12964555D02*
X15498277Y-12983603D01*
X15498277Y-12983603D02*
X15479229Y-12993127D01*
X15764944Y-12935984D02*
X15726848Y-12935984D01*
X15726848Y-12935984D02*
X15707801Y-12945508D01*
X15707801Y-12945508D02*
X15698277Y-12955031D01*
X15698277Y-12955031D02*
X15679229Y-12983603D01*
X15679229Y-12983603D02*
X15669706Y-13021698D01*
X15669706Y-13021698D02*
X15669706Y-13097888D01*
X15669706Y-13097888D02*
X15679229Y-13116936D01*
X15679229Y-13116936D02*
X15688753Y-13126460D01*
X15688753Y-13126460D02*
X15707801Y-13135984D01*
X15707801Y-13135984D02*
X15745896Y-13135984D01*
X15745896Y-13135984D02*
X15764944Y-13126460D01*
X15764944Y-13126460D02*
X15774468Y-13116936D01*
X15774468Y-13116936D02*
X15783991Y-13097888D01*
X15783991Y-13097888D02*
X15783991Y-13050269D01*
X15783991Y-13050269D02*
X15774468Y-13031222D01*
X15774468Y-13031222D02*
X15764944Y-13021698D01*
X15764944Y-13021698D02*
X15745896Y-13012174D01*
X15745896Y-13012174D02*
X15707801Y-13012174D01*
X15707801Y-13012174D02*
X15688753Y-13021698D01*
X15688753Y-13021698D02*
X15679229Y-13031222D01*
X15679229Y-13031222D02*
X15669706Y-13050269D01*
X16022087Y-13135984D02*
X16022087Y-12935984D01*
X16107801Y-13135984D02*
X16107801Y-13031222D01*
X16107801Y-13031222D02*
X16098277Y-13012174D01*
X16098277Y-13012174D02*
X16079230Y-13002650D01*
X16079230Y-13002650D02*
X16050658Y-13002650D01*
X16050658Y-13002650D02*
X16031610Y-13012174D01*
X16031610Y-13012174D02*
X16022087Y-13021698D01*
X16231610Y-13135984D02*
X16212563Y-13126460D01*
X16212563Y-13126460D02*
X16203039Y-13116936D01*
X16203039Y-13116936D02*
X16193515Y-13097888D01*
X16193515Y-13097888D02*
X16193515Y-13040746D01*
X16193515Y-13040746D02*
X16203039Y-13021698D01*
X16203039Y-13021698D02*
X16212563Y-13012174D01*
X16212563Y-13012174D02*
X16231610Y-13002650D01*
X16231610Y-13002650D02*
X16260182Y-13002650D01*
X16260182Y-13002650D02*
X16279230Y-13012174D01*
X16279230Y-13012174D02*
X16288753Y-13021698D01*
X16288753Y-13021698D02*
X16298277Y-13040746D01*
X16298277Y-13040746D02*
X16298277Y-13097888D01*
X16298277Y-13097888D02*
X16288753Y-13116936D01*
X16288753Y-13116936D02*
X16279230Y-13126460D01*
X16279230Y-13126460D02*
X16260182Y-13135984D01*
X16260182Y-13135984D02*
X16231610Y-13135984D01*
X16412563Y-13135984D02*
X16393515Y-13126460D01*
X16393515Y-13126460D02*
X16383991Y-13107412D01*
X16383991Y-13107412D02*
X16383991Y-12935984D01*
X16564944Y-13126460D02*
X16545896Y-13135984D01*
X16545896Y-13135984D02*
X16507801Y-13135984D01*
X16507801Y-13135984D02*
X16488753Y-13126460D01*
X16488753Y-13126460D02*
X16479230Y-13107412D01*
X16479230Y-13107412D02*
X16479230Y-13031222D01*
X16479230Y-13031222D02*
X16488753Y-13012174D01*
X16488753Y-13012174D02*
X16507801Y-13002650D01*
X16507801Y-13002650D02*
X16545896Y-13002650D01*
X16545896Y-13002650D02*
X16564944Y-13012174D01*
X16564944Y-13012174D02*
X16574468Y-13031222D01*
X16574468Y-13031222D02*
X16574468Y-13050269D01*
X16574468Y-13050269D02*
X16479230Y-13069317D01*
X16650658Y-13126460D02*
X16669706Y-13135984D01*
X16669706Y-13135984D02*
X16707801Y-13135984D01*
X16707801Y-13135984D02*
X16726849Y-13126460D01*
X16726849Y-13126460D02*
X16736372Y-13107412D01*
X16736372Y-13107412D02*
X16736372Y-13097888D01*
X16736372Y-13097888D02*
X16726849Y-13078841D01*
X16726849Y-13078841D02*
X16707801Y-13069317D01*
X16707801Y-13069317D02*
X16679230Y-13069317D01*
X16679230Y-13069317D02*
X16660182Y-13059793D01*
X16660182Y-13059793D02*
X16650658Y-13040746D01*
X16650658Y-13040746D02*
X16650658Y-13031222D01*
X16650658Y-13031222D02*
X16660182Y-13012174D01*
X16660182Y-13012174D02*
X16679230Y-13002650D01*
X16679230Y-13002650D02*
X16707801Y-13002650D01*
X16707801Y-13002650D02*
X16726849Y-13012174D01*
X16803039Y-13212174D02*
X16812563Y-13202650D01*
X16812563Y-13202650D02*
X16831611Y-13174079D01*
X16831611Y-13174079D02*
X16841134Y-13155031D01*
X16841134Y-13155031D02*
X16850658Y-13126460D01*
X16850658Y-13126460D02*
X16860182Y-13078841D01*
X16860182Y-13078841D02*
X16860182Y-13040746D01*
X16860182Y-13040746D02*
X16850658Y-12993127D01*
X16850658Y-12993127D02*
X16841134Y-12964555D01*
X16841134Y-12964555D02*
X16831611Y-12945508D01*
X16831611Y-12945508D02*
X16812563Y-12916936D01*
X16812563Y-12916936D02*
X16803039Y-12907412D01*
X11737500Y-13408500D02*
X11837500Y-13308500D01*
X11737500Y-13208500D01*
X11637500Y-13308500D01*
X11737500Y-13408500D01*
X12088753Y-13219031D02*
X12098277Y-13209508D01*
X12098277Y-13209508D02*
X12117324Y-13199984D01*
X12117324Y-13199984D02*
X12164943Y-13199984D01*
X12164943Y-13199984D02*
X12183991Y-13209508D01*
X12183991Y-13209508D02*
X12193515Y-13219031D01*
X12193515Y-13219031D02*
X12203039Y-13238079D01*
X12203039Y-13238079D02*
X12203039Y-13257127D01*
X12203039Y-13257127D02*
X12193515Y-13285698D01*
X12193515Y-13285698D02*
X12079229Y-13399984D01*
X12079229Y-13399984D02*
X12203039Y-13399984D01*
X12288753Y-13380936D02*
X12298277Y-13390460D01*
X12298277Y-13390460D02*
X12288753Y-13399984D01*
X12288753Y-13399984D02*
X12279229Y-13390460D01*
X12279229Y-13390460D02*
X12288753Y-13380936D01*
X12288753Y-13380936D02*
X12288753Y-13399984D01*
X12374467Y-13219031D02*
X12383991Y-13209508D01*
X12383991Y-13209508D02*
X12403039Y-13199984D01*
X12403039Y-13199984D02*
X12450658Y-13199984D01*
X12450658Y-13199984D02*
X12469705Y-13209508D01*
X12469705Y-13209508D02*
X12479229Y-13219031D01*
X12479229Y-13219031D02*
X12488753Y-13238079D01*
X12488753Y-13238079D02*
X12488753Y-13257127D01*
X12488753Y-13257127D02*
X12479229Y-13285698D01*
X12479229Y-13285698D02*
X12364943Y-13399984D01*
X12364943Y-13399984D02*
X12488753Y-13399984D01*
X12612562Y-13199984D02*
X12631610Y-13199984D01*
X12631610Y-13199984D02*
X12650658Y-13209508D01*
X12650658Y-13209508D02*
X12660182Y-13219031D01*
X12660182Y-13219031D02*
X12669705Y-13238079D01*
X12669705Y-13238079D02*
X12679229Y-13276174D01*
X12679229Y-13276174D02*
X12679229Y-13323793D01*
X12679229Y-13323793D02*
X12669705Y-13361888D01*
X12669705Y-13361888D02*
X12660182Y-13380936D01*
X12660182Y-13380936D02*
X12650658Y-13390460D01*
X12650658Y-13390460D02*
X12631610Y-13399984D01*
X12631610Y-13399984D02*
X12612562Y-13399984D01*
X12612562Y-13399984D02*
X12593515Y-13390460D01*
X12593515Y-13390460D02*
X12583991Y-13380936D01*
X12583991Y-13380936D02*
X12574467Y-13361888D01*
X12574467Y-13361888D02*
X12564943Y-13323793D01*
X12564943Y-13323793D02*
X12564943Y-13276174D01*
X12564943Y-13276174D02*
X12574467Y-13238079D01*
X12574467Y-13238079D02*
X12583991Y-13219031D01*
X12583991Y-13219031D02*
X12593515Y-13209508D01*
X12593515Y-13209508D02*
X12612562Y-13199984D01*
X12803039Y-13199984D02*
X12822086Y-13199984D01*
X12822086Y-13199984D02*
X12841134Y-13209508D01*
X12841134Y-13209508D02*
X12850658Y-13219031D01*
X12850658Y-13219031D02*
X12860182Y-13238079D01*
X12860182Y-13238079D02*
X12869705Y-13276174D01*
X12869705Y-13276174D02*
X12869705Y-13323793D01*
X12869705Y-13323793D02*
X12860182Y-13361888D01*
X12860182Y-13361888D02*
X12850658Y-13380936D01*
X12850658Y-13380936D02*
X12841134Y-13390460D01*
X12841134Y-13390460D02*
X12822086Y-13399984D01*
X12822086Y-13399984D02*
X12803039Y-13399984D01*
X12803039Y-13399984D02*
X12783991Y-13390460D01*
X12783991Y-13390460D02*
X12774467Y-13380936D01*
X12774467Y-13380936D02*
X12764943Y-13361888D01*
X12764943Y-13361888D02*
X12755420Y-13323793D01*
X12755420Y-13323793D02*
X12755420Y-13276174D01*
X12755420Y-13276174D02*
X12764943Y-13238079D01*
X12764943Y-13238079D02*
X12774467Y-13219031D01*
X12774467Y-13219031D02*
X12783991Y-13209508D01*
X12783991Y-13209508D02*
X12803039Y-13199984D01*
X12955420Y-13399984D02*
X12955420Y-13266650D01*
X12955420Y-13285698D02*
X12964943Y-13276174D01*
X12964943Y-13276174D02*
X12983991Y-13266650D01*
X12983991Y-13266650D02*
X13012563Y-13266650D01*
X13012563Y-13266650D02*
X13031610Y-13276174D01*
X13031610Y-13276174D02*
X13041134Y-13295222D01*
X13041134Y-13295222D02*
X13041134Y-13399984D01*
X13041134Y-13295222D02*
X13050658Y-13276174D01*
X13050658Y-13276174D02*
X13069705Y-13266650D01*
X13069705Y-13266650D02*
X13098277Y-13266650D01*
X13098277Y-13266650D02*
X13117324Y-13276174D01*
X13117324Y-13276174D02*
X13126848Y-13295222D01*
X13126848Y-13295222D02*
X13126848Y-13399984D01*
X13222086Y-13399984D02*
X13222086Y-13266650D01*
X13222086Y-13285698D02*
X13231610Y-13276174D01*
X13231610Y-13276174D02*
X13250658Y-13266650D01*
X13250658Y-13266650D02*
X13279229Y-13266650D01*
X13279229Y-13266650D02*
X13298277Y-13276174D01*
X13298277Y-13276174D02*
X13307801Y-13295222D01*
X13307801Y-13295222D02*
X13307801Y-13399984D01*
X13307801Y-13295222D02*
X13317324Y-13276174D01*
X13317324Y-13276174D02*
X13336372Y-13266650D01*
X13336372Y-13266650D02*
X13364943Y-13266650D01*
X13364943Y-13266650D02*
X13383991Y-13276174D01*
X13383991Y-13276174D02*
X13393515Y-13295222D01*
X13393515Y-13295222D02*
X13393515Y-13399984D01*
X13783991Y-13190460D02*
X13612563Y-13447603D01*
X14041134Y-13199984D02*
X14060182Y-13199984D01*
X14060182Y-13199984D02*
X14079229Y-13209508D01*
X14079229Y-13209508D02*
X14088753Y-13219031D01*
X14088753Y-13219031D02*
X14098277Y-13238079D01*
X14098277Y-13238079D02*
X14107801Y-13276174D01*
X14107801Y-13276174D02*
X14107801Y-13323793D01*
X14107801Y-13323793D02*
X14098277Y-13361888D01*
X14098277Y-13361888D02*
X14088753Y-13380936D01*
X14088753Y-13380936D02*
X14079229Y-13390460D01*
X14079229Y-13390460D02*
X14060182Y-13399984D01*
X14060182Y-13399984D02*
X14041134Y-13399984D01*
X14041134Y-13399984D02*
X14022086Y-13390460D01*
X14022086Y-13390460D02*
X14012563Y-13380936D01*
X14012563Y-13380936D02*
X14003039Y-13361888D01*
X14003039Y-13361888D02*
X13993515Y-13323793D01*
X13993515Y-13323793D02*
X13993515Y-13276174D01*
X13993515Y-13276174D02*
X14003039Y-13238079D01*
X14003039Y-13238079D02*
X14012563Y-13219031D01*
X14012563Y-13219031D02*
X14022086Y-13209508D01*
X14022086Y-13209508D02*
X14041134Y-13199984D01*
X14193515Y-13380936D02*
X14203039Y-13390460D01*
X14203039Y-13390460D02*
X14193515Y-13399984D01*
X14193515Y-13399984D02*
X14183991Y-13390460D01*
X14183991Y-13390460D02*
X14193515Y-13380936D01*
X14193515Y-13380936D02*
X14193515Y-13399984D01*
X14326848Y-13199984D02*
X14345896Y-13199984D01*
X14345896Y-13199984D02*
X14364944Y-13209508D01*
X14364944Y-13209508D02*
X14374467Y-13219031D01*
X14374467Y-13219031D02*
X14383991Y-13238079D01*
X14383991Y-13238079D02*
X14393515Y-13276174D01*
X14393515Y-13276174D02*
X14393515Y-13323793D01*
X14393515Y-13323793D02*
X14383991Y-13361888D01*
X14383991Y-13361888D02*
X14374467Y-13380936D01*
X14374467Y-13380936D02*
X14364944Y-13390460D01*
X14364944Y-13390460D02*
X14345896Y-13399984D01*
X14345896Y-13399984D02*
X14326848Y-13399984D01*
X14326848Y-13399984D02*
X14307801Y-13390460D01*
X14307801Y-13390460D02*
X14298277Y-13380936D01*
X14298277Y-13380936D02*
X14288753Y-13361888D01*
X14288753Y-13361888D02*
X14279229Y-13323793D01*
X14279229Y-13323793D02*
X14279229Y-13276174D01*
X14279229Y-13276174D02*
X14288753Y-13238079D01*
X14288753Y-13238079D02*
X14298277Y-13219031D01*
X14298277Y-13219031D02*
X14307801Y-13209508D01*
X14307801Y-13209508D02*
X14326848Y-13199984D01*
X14507801Y-13285698D02*
X14488753Y-13276174D01*
X14488753Y-13276174D02*
X14479229Y-13266650D01*
X14479229Y-13266650D02*
X14469706Y-13247603D01*
X14469706Y-13247603D02*
X14469706Y-13238079D01*
X14469706Y-13238079D02*
X14479229Y-13219031D01*
X14479229Y-13219031D02*
X14488753Y-13209508D01*
X14488753Y-13209508D02*
X14507801Y-13199984D01*
X14507801Y-13199984D02*
X14545896Y-13199984D01*
X14545896Y-13199984D02*
X14564944Y-13209508D01*
X14564944Y-13209508D02*
X14574467Y-13219031D01*
X14574467Y-13219031D02*
X14583991Y-13238079D01*
X14583991Y-13238079D02*
X14583991Y-13247603D01*
X14583991Y-13247603D02*
X14574467Y-13266650D01*
X14574467Y-13266650D02*
X14564944Y-13276174D01*
X14564944Y-13276174D02*
X14545896Y-13285698D01*
X14545896Y-13285698D02*
X14507801Y-13285698D01*
X14507801Y-13285698D02*
X14488753Y-13295222D01*
X14488753Y-13295222D02*
X14479229Y-13304746D01*
X14479229Y-13304746D02*
X14469706Y-13323793D01*
X14469706Y-13323793D02*
X14469706Y-13361888D01*
X14469706Y-13361888D02*
X14479229Y-13380936D01*
X14479229Y-13380936D02*
X14488753Y-13390460D01*
X14488753Y-13390460D02*
X14507801Y-13399984D01*
X14507801Y-13399984D02*
X14545896Y-13399984D01*
X14545896Y-13399984D02*
X14564944Y-13390460D01*
X14564944Y-13390460D02*
X14574467Y-13380936D01*
X14574467Y-13380936D02*
X14583991Y-13361888D01*
X14583991Y-13361888D02*
X14583991Y-13323793D01*
X14583991Y-13323793D02*
X14574467Y-13304746D01*
X14574467Y-13304746D02*
X14564944Y-13295222D01*
X14564944Y-13295222D02*
X14545896Y-13285698D01*
X14755420Y-13199984D02*
X14717325Y-13199984D01*
X14717325Y-13199984D02*
X14698277Y-13209508D01*
X14698277Y-13209508D02*
X14688753Y-13219031D01*
X14688753Y-13219031D02*
X14669706Y-13247603D01*
X14669706Y-13247603D02*
X14660182Y-13285698D01*
X14660182Y-13285698D02*
X14660182Y-13361888D01*
X14660182Y-13361888D02*
X14669706Y-13380936D01*
X14669706Y-13380936D02*
X14679229Y-13390460D01*
X14679229Y-13390460D02*
X14698277Y-13399984D01*
X14698277Y-13399984D02*
X14736372Y-13399984D01*
X14736372Y-13399984D02*
X14755420Y-13390460D01*
X14755420Y-13390460D02*
X14764944Y-13380936D01*
X14764944Y-13380936D02*
X14774467Y-13361888D01*
X14774467Y-13361888D02*
X14774467Y-13314269D01*
X14774467Y-13314269D02*
X14764944Y-13295222D01*
X14764944Y-13295222D02*
X14755420Y-13285698D01*
X14755420Y-13285698D02*
X14736372Y-13276174D01*
X14736372Y-13276174D02*
X14698277Y-13276174D01*
X14698277Y-13276174D02*
X14679229Y-13285698D01*
X14679229Y-13285698D02*
X14669706Y-13295222D01*
X14669706Y-13295222D02*
X14660182Y-13314269D01*
X14945896Y-13199984D02*
X14907801Y-13199984D01*
X14907801Y-13199984D02*
X14888753Y-13209508D01*
X14888753Y-13209508D02*
X14879229Y-13219031D01*
X14879229Y-13219031D02*
X14860182Y-13247603D01*
X14860182Y-13247603D02*
X14850658Y-13285698D01*
X14850658Y-13285698D02*
X14850658Y-13361888D01*
X14850658Y-13361888D02*
X14860182Y-13380936D01*
X14860182Y-13380936D02*
X14869706Y-13390460D01*
X14869706Y-13390460D02*
X14888753Y-13399984D01*
X14888753Y-13399984D02*
X14926848Y-13399984D01*
X14926848Y-13399984D02*
X14945896Y-13390460D01*
X14945896Y-13390460D02*
X14955420Y-13380936D01*
X14955420Y-13380936D02*
X14964944Y-13361888D01*
X14964944Y-13361888D02*
X14964944Y-13314269D01*
X14964944Y-13314269D02*
X14955420Y-13295222D01*
X14955420Y-13295222D02*
X14945896Y-13285698D01*
X14945896Y-13285698D02*
X14926848Y-13276174D01*
X14926848Y-13276174D02*
X14888753Y-13276174D01*
X14888753Y-13276174D02*
X14869706Y-13285698D01*
X14869706Y-13285698D02*
X14860182Y-13295222D01*
X14860182Y-13295222D02*
X14850658Y-13314269D01*
X15041134Y-13199984D02*
X15041134Y-13238079D01*
X15117325Y-13199984D02*
X15117325Y-13238079D01*
X15412563Y-13476174D02*
X15403039Y-13466650D01*
X15403039Y-13466650D02*
X15383991Y-13438079D01*
X15383991Y-13438079D02*
X15374468Y-13419031D01*
X15374468Y-13419031D02*
X15364944Y-13390460D01*
X15364944Y-13390460D02*
X15355420Y-13342841D01*
X15355420Y-13342841D02*
X15355420Y-13304746D01*
X15355420Y-13304746D02*
X15364944Y-13257127D01*
X15364944Y-13257127D02*
X15374468Y-13228555D01*
X15374468Y-13228555D02*
X15383991Y-13209508D01*
X15383991Y-13209508D02*
X15403039Y-13180936D01*
X15403039Y-13180936D02*
X15412563Y-13171412D01*
X15574468Y-13266650D02*
X15574468Y-13399984D01*
X15526848Y-13190460D02*
X15479229Y-13333317D01*
X15479229Y-13333317D02*
X15603039Y-13333317D01*
X15831610Y-13399984D02*
X15831610Y-13199984D01*
X15917325Y-13399984D02*
X15917325Y-13295222D01*
X15917325Y-13295222D02*
X15907801Y-13276174D01*
X15907801Y-13276174D02*
X15888753Y-13266650D01*
X15888753Y-13266650D02*
X15860182Y-13266650D01*
X15860182Y-13266650D02*
X15841134Y-13276174D01*
X15841134Y-13276174D02*
X15831610Y-13285698D01*
X16041134Y-13399984D02*
X16022087Y-13390460D01*
X16022087Y-13390460D02*
X16012563Y-13380936D01*
X16012563Y-13380936D02*
X16003039Y-13361888D01*
X16003039Y-13361888D02*
X16003039Y-13304746D01*
X16003039Y-13304746D02*
X16012563Y-13285698D01*
X16012563Y-13285698D02*
X16022087Y-13276174D01*
X16022087Y-13276174D02*
X16041134Y-13266650D01*
X16041134Y-13266650D02*
X16069706Y-13266650D01*
X16069706Y-13266650D02*
X16088753Y-13276174D01*
X16088753Y-13276174D02*
X16098277Y-13285698D01*
X16098277Y-13285698D02*
X16107801Y-13304746D01*
X16107801Y-13304746D02*
X16107801Y-13361888D01*
X16107801Y-13361888D02*
X16098277Y-13380936D01*
X16098277Y-13380936D02*
X16088753Y-13390460D01*
X16088753Y-13390460D02*
X16069706Y-13399984D01*
X16069706Y-13399984D02*
X16041134Y-13399984D01*
X16222087Y-13399984D02*
X16203039Y-13390460D01*
X16203039Y-13390460D02*
X16193515Y-13371412D01*
X16193515Y-13371412D02*
X16193515Y-13199984D01*
X16374468Y-13390460D02*
X16355420Y-13399984D01*
X16355420Y-13399984D02*
X16317325Y-13399984D01*
X16317325Y-13399984D02*
X16298277Y-13390460D01*
X16298277Y-13390460D02*
X16288753Y-13371412D01*
X16288753Y-13371412D02*
X16288753Y-13295222D01*
X16288753Y-13295222D02*
X16298277Y-13276174D01*
X16298277Y-13276174D02*
X16317325Y-13266650D01*
X16317325Y-13266650D02*
X16355420Y-13266650D01*
X16355420Y-13266650D02*
X16374468Y-13276174D01*
X16374468Y-13276174D02*
X16383991Y-13295222D01*
X16383991Y-13295222D02*
X16383991Y-13314269D01*
X16383991Y-13314269D02*
X16288753Y-13333317D01*
X16460182Y-13390460D02*
X16479230Y-13399984D01*
X16479230Y-13399984D02*
X16517325Y-13399984D01*
X16517325Y-13399984D02*
X16536372Y-13390460D01*
X16536372Y-13390460D02*
X16545896Y-13371412D01*
X16545896Y-13371412D02*
X16545896Y-13361888D01*
X16545896Y-13361888D02*
X16536372Y-13342841D01*
X16536372Y-13342841D02*
X16517325Y-13333317D01*
X16517325Y-13333317D02*
X16488753Y-13333317D01*
X16488753Y-13333317D02*
X16469706Y-13323793D01*
X16469706Y-13323793D02*
X16460182Y-13304746D01*
X16460182Y-13304746D02*
X16460182Y-13295222D01*
X16460182Y-13295222D02*
X16469706Y-13276174D01*
X16469706Y-13276174D02*
X16488753Y-13266650D01*
X16488753Y-13266650D02*
X16517325Y-13266650D01*
X16517325Y-13266650D02*
X16536372Y-13276174D01*
X16612563Y-13476174D02*
X16622087Y-13466650D01*
X16622087Y-13466650D02*
X16641134Y-13438079D01*
X16641134Y-13438079D02*
X16650658Y-13419031D01*
X16650658Y-13419031D02*
X16660182Y-13390460D01*
X16660182Y-13390460D02*
X16669706Y-13342841D01*
X16669706Y-13342841D02*
X16669706Y-13304746D01*
X16669706Y-13304746D02*
X16660182Y-13257127D01*
X16660182Y-13257127D02*
X16650658Y-13228555D01*
X16650658Y-13228555D02*
X16641134Y-13209508D01*
X16641134Y-13209508D02*
X16622087Y-13180936D01*
X16622087Y-13180936D02*
X16612563Y-13171412D01*
X16974468Y-13476174D02*
X16964944Y-13466650D01*
X16964944Y-13466650D02*
X16945896Y-13438079D01*
X16945896Y-13438079D02*
X16936373Y-13419031D01*
X16936373Y-13419031D02*
X16926849Y-13390460D01*
X16926849Y-13390460D02*
X16917325Y-13342841D01*
X16917325Y-13342841D02*
X16917325Y-13304746D01*
X16917325Y-13304746D02*
X16926849Y-13257127D01*
X16926849Y-13257127D02*
X16936373Y-13228555D01*
X16936373Y-13228555D02*
X16945896Y-13209508D01*
X16945896Y-13209508D02*
X16964944Y-13180936D01*
X16964944Y-13180936D02*
X16974468Y-13171412D01*
X17050658Y-13266650D02*
X17050658Y-13399984D01*
X17050658Y-13285698D02*
X17060182Y-13276174D01*
X17060182Y-13276174D02*
X17079230Y-13266650D01*
X17079230Y-13266650D02*
X17107801Y-13266650D01*
X17107801Y-13266650D02*
X17126849Y-13276174D01*
X17126849Y-13276174D02*
X17136373Y-13295222D01*
X17136373Y-13295222D02*
X17136373Y-13399984D01*
X17260182Y-13399984D02*
X17241134Y-13390460D01*
X17241134Y-13390460D02*
X17231611Y-13380936D01*
X17231611Y-13380936D02*
X17222087Y-13361888D01*
X17222087Y-13361888D02*
X17222087Y-13304746D01*
X17222087Y-13304746D02*
X17231611Y-13285698D01*
X17231611Y-13285698D02*
X17241134Y-13276174D01*
X17241134Y-13276174D02*
X17260182Y-13266650D01*
X17260182Y-13266650D02*
X17288754Y-13266650D01*
X17288754Y-13266650D02*
X17307801Y-13276174D01*
X17307801Y-13276174D02*
X17317325Y-13285698D01*
X17317325Y-13285698D02*
X17326849Y-13304746D01*
X17326849Y-13304746D02*
X17326849Y-13361888D01*
X17326849Y-13361888D02*
X17317325Y-13380936D01*
X17317325Y-13380936D02*
X17307801Y-13390460D01*
X17307801Y-13390460D02*
X17288754Y-13399984D01*
X17288754Y-13399984D02*
X17260182Y-13399984D01*
X17383992Y-13266650D02*
X17460182Y-13266650D01*
X17412563Y-13199984D02*
X17412563Y-13371412D01*
X17412563Y-13371412D02*
X17422087Y-13390460D01*
X17422087Y-13390460D02*
X17441134Y-13399984D01*
X17441134Y-13399984D02*
X17460182Y-13399984D01*
X17679230Y-13266650D02*
X17679230Y-13466650D01*
X17679230Y-13276174D02*
X17698277Y-13266650D01*
X17698277Y-13266650D02*
X17736373Y-13266650D01*
X17736373Y-13266650D02*
X17755420Y-13276174D01*
X17755420Y-13276174D02*
X17764944Y-13285698D01*
X17764944Y-13285698D02*
X17774468Y-13304746D01*
X17774468Y-13304746D02*
X17774468Y-13361888D01*
X17774468Y-13361888D02*
X17764944Y-13380936D01*
X17764944Y-13380936D02*
X17755420Y-13390460D01*
X17755420Y-13390460D02*
X17736373Y-13399984D01*
X17736373Y-13399984D02*
X17698277Y-13399984D01*
X17698277Y-13399984D02*
X17679230Y-13390460D01*
X17888754Y-13399984D02*
X17869706Y-13390460D01*
X17869706Y-13390460D02*
X17860182Y-13371412D01*
X17860182Y-13371412D02*
X17860182Y-13199984D01*
X18050658Y-13399984D02*
X18050658Y-13295222D01*
X18050658Y-13295222D02*
X18041135Y-13276174D01*
X18041135Y-13276174D02*
X18022087Y-13266650D01*
X18022087Y-13266650D02*
X17983992Y-13266650D01*
X17983992Y-13266650D02*
X17964944Y-13276174D01*
X18050658Y-13390460D02*
X18031611Y-13399984D01*
X18031611Y-13399984D02*
X17983992Y-13399984D01*
X17983992Y-13399984D02*
X17964944Y-13390460D01*
X17964944Y-13390460D02*
X17955420Y-13371412D01*
X17955420Y-13371412D02*
X17955420Y-13352365D01*
X17955420Y-13352365D02*
X17964944Y-13333317D01*
X17964944Y-13333317D02*
X17983992Y-13323793D01*
X17983992Y-13323793D02*
X18031611Y-13323793D01*
X18031611Y-13323793D02*
X18050658Y-13314269D01*
X18117325Y-13266650D02*
X18193515Y-13266650D01*
X18145896Y-13199984D02*
X18145896Y-13371412D01*
X18145896Y-13371412D02*
X18155420Y-13390460D01*
X18155420Y-13390460D02*
X18174468Y-13399984D01*
X18174468Y-13399984D02*
X18193515Y-13399984D01*
X18336373Y-13390460D02*
X18317325Y-13399984D01*
X18317325Y-13399984D02*
X18279230Y-13399984D01*
X18279230Y-13399984D02*
X18260182Y-13390460D01*
X18260182Y-13390460D02*
X18250658Y-13371412D01*
X18250658Y-13371412D02*
X18250658Y-13295222D01*
X18250658Y-13295222D02*
X18260182Y-13276174D01*
X18260182Y-13276174D02*
X18279230Y-13266650D01*
X18279230Y-13266650D02*
X18317325Y-13266650D01*
X18317325Y-13266650D02*
X18336373Y-13276174D01*
X18336373Y-13276174D02*
X18345896Y-13295222D01*
X18345896Y-13295222D02*
X18345896Y-13314269D01*
X18345896Y-13314269D02*
X18250658Y-13333317D01*
X18517325Y-13399984D02*
X18517325Y-13199984D01*
X18517325Y-13390460D02*
X18498277Y-13399984D01*
X18498277Y-13399984D02*
X18460182Y-13399984D01*
X18460182Y-13399984D02*
X18441135Y-13390460D01*
X18441135Y-13390460D02*
X18431611Y-13380936D01*
X18431611Y-13380936D02*
X18422087Y-13361888D01*
X18422087Y-13361888D02*
X18422087Y-13304746D01*
X18422087Y-13304746D02*
X18431611Y-13285698D01*
X18431611Y-13285698D02*
X18441135Y-13276174D01*
X18441135Y-13276174D02*
X18460182Y-13266650D01*
X18460182Y-13266650D02*
X18498277Y-13266650D01*
X18498277Y-13266650D02*
X18517325Y-13276174D01*
X18593516Y-13476174D02*
X18603039Y-13466650D01*
X18603039Y-13466650D02*
X18622087Y-13438079D01*
X18622087Y-13438079D02*
X18631611Y-13419031D01*
X18631611Y-13419031D02*
X18641135Y-13390460D01*
X18641135Y-13390460D02*
X18650658Y-13342841D01*
X18650658Y-13342841D02*
X18650658Y-13304746D01*
X18650658Y-13304746D02*
X18641135Y-13257127D01*
X18641135Y-13257127D02*
X18631611Y-13228555D01*
X18631611Y-13228555D02*
X18622087Y-13209508D01*
X18622087Y-13209508D02*
X18603039Y-13180936D01*
X18603039Y-13180936D02*
X18593516Y-13171412D01*
M02*
