%TF.GenerationSoftware,KiCad,Pcbnew,8.0.9*%
%TF.CreationDate,2025-03-10T14:56:04+11:00*%
%TF.ProjectId,stm32l05_dev_board,73746d33-326c-4303-955f-6465765f626f,rev?*%
%TF.SameCoordinates,Original*%
%TF.FileFunction,Paste,Top*%
%TF.FilePolarity,Positive*%
%FSLAX46Y46*%
G04 Gerber Fmt 4.6, Leading zero omitted, Abs format (unit mm)*
G04 Created by KiCad (PCBNEW 8.0.9) date 2025-03-10 14:56:04*
%MOMM*%
%LPD*%
G01*
G04 APERTURE LIST*
G04 Aperture macros list*
%AMRoundRect*
0 Rectangle with rounded corners*
0 $1 Rounding radius*
0 $2 $3 $4 $5 $6 $7 $8 $9 X,Y pos of 4 corners*
0 Add a 4 corners polygon primitive as box body*
4,1,4,$2,$3,$4,$5,$6,$7,$8,$9,$2,$3,0*
0 Add four circle primitives for the rounded corners*
1,1,$1+$1,$2,$3*
1,1,$1+$1,$4,$5*
1,1,$1+$1,$6,$7*
1,1,$1+$1,$8,$9*
0 Add four rect primitives between the rounded corners*
20,1,$1+$1,$2,$3,$4,$5,0*
20,1,$1+$1,$4,$5,$6,$7,0*
20,1,$1+$1,$6,$7,$8,$9,0*
20,1,$1+$1,$8,$9,$2,$3,0*%
G04 Aperture macros list end*
%ADD10RoundRect,0.135000X-0.185000X0.135000X-0.185000X-0.135000X0.185000X-0.135000X0.185000X0.135000X0*%
%ADD11RoundRect,0.375000X-0.625000X-0.375000X0.625000X-0.375000X0.625000X0.375000X-0.625000X0.375000X0*%
%ADD12RoundRect,0.500000X-0.500000X-1.400000X0.500000X-1.400000X0.500000X1.400000X-0.500000X1.400000X0*%
%ADD13RoundRect,0.218750X-0.218750X-0.256250X0.218750X-0.256250X0.218750X0.256250X-0.218750X0.256250X0*%
%ADD14RoundRect,0.140000X0.170000X-0.140000X0.170000X0.140000X-0.170000X0.140000X-0.170000X-0.140000X0*%
%ADD15RoundRect,0.140000X-0.140000X-0.170000X0.140000X-0.170000X0.140000X0.170000X-0.140000X0.170000X0*%
%ADD16RoundRect,0.125000X-0.625000X-0.125000X0.625000X-0.125000X0.625000X0.125000X-0.625000X0.125000X0*%
%ADD17RoundRect,0.125000X-0.125000X-0.625000X0.125000X-0.625000X0.125000X0.625000X-0.125000X0.625000X0*%
%ADD18RoundRect,0.135000X0.185000X-0.135000X0.185000X0.135000X-0.185000X0.135000X-0.185000X-0.135000X0*%
%ADD19R,1.600000X1.400000*%
%ADD20R,0.300000X0.850000*%
%ADD21RoundRect,0.100000X0.100000X0.575000X-0.100000X0.575000X-0.100000X-0.575000X0.100000X-0.575000X0*%
%ADD22RoundRect,0.250000X1.200000X0.700000X-1.200000X0.700000X-1.200000X-0.700000X1.200000X-0.700000X0*%
%ADD23RoundRect,0.218750X0.256250X-0.218750X0.256250X0.218750X-0.256250X0.218750X-0.256250X-0.218750X0*%
%ADD24RoundRect,0.140000X-0.170000X0.140000X-0.170000X-0.140000X0.170000X-0.140000X0.170000X0.140000X0*%
%ADD25RoundRect,0.250000X-0.475000X0.250000X-0.475000X-0.250000X0.475000X-0.250000X0.475000X0.250000X0*%
%ADD26RoundRect,0.225000X-0.250000X0.225000X-0.250000X-0.225000X0.250000X-0.225000X0.250000X0.225000X0*%
%ADD27RoundRect,0.135000X-0.135000X-0.185000X0.135000X-0.185000X0.135000X0.185000X-0.135000X0.185000X0*%
%ADD28RoundRect,0.225000X0.250000X-0.225000X0.250000X0.225000X-0.250000X0.225000X-0.250000X-0.225000X0*%
%ADD29R,1.400000X1.600000*%
%ADD30RoundRect,0.250000X0.475000X-0.250000X0.475000X0.250000X-0.475000X0.250000X-0.475000X-0.250000X0*%
%ADD31R,1.100000X1.900000*%
G04 APERTURE END LIST*
D10*
%TO.C,R6*%
X151100000Y-109090000D03*
X151100000Y-110110000D03*
%TD*%
D11*
%TO.C,U2*%
X145950000Y-77790000D03*
X145950000Y-80090000D03*
D12*
X152250000Y-80090000D03*
D11*
X145950000Y-82390000D03*
%TD*%
D13*
%TO.C,D1*%
X133600000Y-88090000D03*
X135175000Y-88090000D03*
%TD*%
D14*
%TO.C,C10*%
X131425000Y-97590000D03*
X131425000Y-96630000D03*
%TD*%
D15*
%TO.C,C4*%
X128687500Y-101090000D03*
X129647500Y-101090000D03*
%TD*%
D16*
%TO.C,U1*%
X134925000Y-95790000D03*
X134925000Y-96590000D03*
X134925000Y-97390000D03*
X134925000Y-98190000D03*
X134925000Y-98990000D03*
X134925000Y-99790000D03*
X134925000Y-100590000D03*
X134925000Y-101390000D03*
D17*
X136300000Y-102765000D03*
X137100000Y-102765000D03*
X137900000Y-102765000D03*
X138700000Y-102765000D03*
X139500000Y-102765000D03*
X140300000Y-102765000D03*
X141100000Y-102765000D03*
X141900000Y-102765000D03*
D16*
X143275000Y-101390000D03*
X143275000Y-100590000D03*
X143275000Y-99790000D03*
X143275000Y-98990000D03*
X143275000Y-98190000D03*
X143275000Y-97390000D03*
X143275000Y-96590000D03*
X143275000Y-95790000D03*
D17*
X141900000Y-94415000D03*
X141100000Y-94415000D03*
X140300000Y-94415000D03*
X139500000Y-94415000D03*
X138700000Y-94415000D03*
X137900000Y-94415000D03*
X137100000Y-94415000D03*
X136300000Y-94415000D03*
%TD*%
D18*
%TO.C,R2*%
X138100000Y-88090000D03*
X138100000Y-87070000D03*
%TD*%
D19*
%TO.C,SW3*%
X144100000Y-87340000D03*
X152100000Y-87340000D03*
X144100000Y-91840000D03*
X152100000Y-91840000D03*
%TD*%
D20*
%TO.C,J1*%
X142100000Y-74090000D03*
X135100000Y-74090000D03*
D21*
X137300000Y-76765000D03*
X137950000Y-76765000D03*
X138600000Y-76765000D03*
X139250000Y-76765000D03*
X139900000Y-76765000D03*
D22*
X138600000Y-74090000D03*
%TD*%
D23*
%TO.C,D3*%
X151100000Y-107377500D03*
X151100000Y-105802500D03*
%TD*%
D24*
%TO.C,C8*%
X145725000Y-102555000D03*
X145725000Y-103515000D03*
%TD*%
D25*
%TO.C,C3*%
X156100000Y-79190000D03*
X156100000Y-81090000D03*
%TD*%
D26*
%TO.C,C5*%
X149600000Y-102040000D03*
X149600000Y-103590000D03*
%TD*%
D14*
%TO.C,C9*%
X131425000Y-95090000D03*
X131425000Y-94130000D03*
%TD*%
D10*
%TO.C,R5*%
X147600000Y-109080000D03*
X147600000Y-110100000D03*
%TD*%
D24*
%TO.C,C7*%
X147100000Y-102610000D03*
X147100000Y-103570000D03*
%TD*%
D27*
%TO.C,R1*%
X133590000Y-90590000D03*
X134610000Y-90590000D03*
%TD*%
D15*
%TO.C,C6*%
X133620000Y-93090000D03*
X134580000Y-93090000D03*
%TD*%
D23*
%TO.C,D2*%
X147600000Y-107377500D03*
X147600000Y-105802500D03*
%TD*%
D28*
%TO.C,C1*%
X139600000Y-82365000D03*
X139600000Y-80815000D03*
%TD*%
D29*
%TO.C,SW2*%
X125350000Y-111090000D03*
X125350000Y-103090000D03*
X129850000Y-111090000D03*
X129850000Y-103090000D03*
%TD*%
D30*
%TO.C,C2*%
X142800000Y-82490000D03*
X142800000Y-80590000D03*
%TD*%
D31*
%TO.C,Y2*%
X126275000Y-93740000D03*
X126275000Y-97440000D03*
X128575000Y-97440000D03*
X128575000Y-93740000D03*
%TD*%
M02*
