%TF.GenerationSoftware,KiCad,Pcbnew,8.0.9*%
%TF.CreationDate,2025-03-10T14:56:04+11:00*%
%TF.ProjectId,stm32l05_dev_board,73746d33-326c-4303-955f-6465765f626f,rev?*%
%TF.SameCoordinates,Original*%
%TF.FileFunction,Copper,L1,Top*%
%TF.FilePolarity,Positive*%
%FSLAX46Y46*%
G04 Gerber Fmt 4.6, Leading zero omitted, Abs format (unit mm)*
G04 Created by KiCad (PCBNEW 8.0.9) date 2025-03-10 14:56:04*
%MOMM*%
%LPD*%
G01*
G04 APERTURE LIST*
G04 Aperture macros list*
%AMRoundRect*
0 Rectangle with rounded corners*
0 $1 Rounding radius*
0 $2 $3 $4 $5 $6 $7 $8 $9 X,Y pos of 4 corners*
0 Add a 4 corners polygon primitive as box body*
4,1,4,$2,$3,$4,$5,$6,$7,$8,$9,$2,$3,0*
0 Add four circle primitives for the rounded corners*
1,1,$1+$1,$2,$3*
1,1,$1+$1,$4,$5*
1,1,$1+$1,$6,$7*
1,1,$1+$1,$8,$9*
0 Add four rect primitives between the rounded corners*
20,1,$1+$1,$2,$3,$4,$5,0*
20,1,$1+$1,$4,$5,$6,$7,0*
20,1,$1+$1,$6,$7,$8,$9,0*
20,1,$1+$1,$8,$9,$2,$3,0*%
G04 Aperture macros list end*
%TA.AperFunction,SMDPad,CuDef*%
%ADD10RoundRect,0.135000X-0.185000X0.135000X-0.185000X-0.135000X0.185000X-0.135000X0.185000X0.135000X0*%
%TD*%
%TA.AperFunction,SMDPad,CuDef*%
%ADD11RoundRect,0.375000X-0.625000X-0.375000X0.625000X-0.375000X0.625000X0.375000X-0.625000X0.375000X0*%
%TD*%
%TA.AperFunction,SMDPad,CuDef*%
%ADD12RoundRect,0.500000X-0.500000X-1.400000X0.500000X-1.400000X0.500000X1.400000X-0.500000X1.400000X0*%
%TD*%
%TA.AperFunction,SMDPad,CuDef*%
%ADD13RoundRect,0.218750X-0.218750X-0.256250X0.218750X-0.256250X0.218750X0.256250X-0.218750X0.256250X0*%
%TD*%
%TA.AperFunction,SMDPad,CuDef*%
%ADD14RoundRect,0.140000X0.170000X-0.140000X0.170000X0.140000X-0.170000X0.140000X-0.170000X-0.140000X0*%
%TD*%
%TA.AperFunction,ComponentPad*%
%ADD15R,1.700000X1.700000*%
%TD*%
%TA.AperFunction,ComponentPad*%
%ADD16O,1.700000X1.700000*%
%TD*%
%TA.AperFunction,SMDPad,CuDef*%
%ADD17RoundRect,0.140000X-0.140000X-0.170000X0.140000X-0.170000X0.140000X0.170000X-0.140000X0.170000X0*%
%TD*%
%TA.AperFunction,SMDPad,CuDef*%
%ADD18RoundRect,0.125000X-0.625000X-0.125000X0.625000X-0.125000X0.625000X0.125000X-0.625000X0.125000X0*%
%TD*%
%TA.AperFunction,SMDPad,CuDef*%
%ADD19RoundRect,0.125000X-0.125000X-0.625000X0.125000X-0.625000X0.125000X0.625000X-0.125000X0.625000X0*%
%TD*%
%TA.AperFunction,SMDPad,CuDef*%
%ADD20RoundRect,0.135000X0.185000X-0.135000X0.185000X0.135000X-0.185000X0.135000X-0.185000X-0.135000X0*%
%TD*%
%TA.AperFunction,SMDPad,CuDef*%
%ADD21R,1.600000X1.400000*%
%TD*%
%TA.AperFunction,SMDPad,CuDef*%
%ADD22RoundRect,0.100000X0.100000X0.575000X-0.100000X0.575000X-0.100000X-0.575000X0.100000X-0.575000X0*%
%TD*%
%TA.AperFunction,HeatsinkPad*%
%ADD23O,1.000000X1.900000*%
%TD*%
%TA.AperFunction,SMDPad,CuDef*%
%ADD24R,0.875000X1.900000*%
%TD*%
%TA.AperFunction,HeatsinkPad*%
%ADD25O,1.050000X1.250000*%
%TD*%
%TA.AperFunction,SMDPad,CuDef*%
%ADD26RoundRect,0.250000X1.200000X0.700000X-1.200000X0.700000X-1.200000X-0.700000X1.200000X-0.700000X0*%
%TD*%
%TA.AperFunction,SMDPad,CuDef*%
%ADD27RoundRect,0.218750X0.256250X-0.218750X0.256250X0.218750X-0.256250X0.218750X-0.256250X-0.218750X0*%
%TD*%
%TA.AperFunction,SMDPad,CuDef*%
%ADD28RoundRect,0.140000X-0.170000X0.140000X-0.170000X-0.140000X0.170000X-0.140000X0.170000X0.140000X0*%
%TD*%
%TA.AperFunction,SMDPad,CuDef*%
%ADD29RoundRect,0.250000X-0.475000X0.250000X-0.475000X-0.250000X0.475000X-0.250000X0.475000X0.250000X0*%
%TD*%
%TA.AperFunction,SMDPad,CuDef*%
%ADD30RoundRect,0.225000X-0.250000X0.225000X-0.250000X-0.225000X0.250000X-0.225000X0.250000X0.225000X0*%
%TD*%
%TA.AperFunction,SMDPad,CuDef*%
%ADD31RoundRect,0.135000X-0.135000X-0.185000X0.135000X-0.185000X0.135000X0.185000X-0.135000X0.185000X0*%
%TD*%
%TA.AperFunction,SMDPad,CuDef*%
%ADD32RoundRect,0.225000X0.250000X-0.225000X0.250000X0.225000X-0.250000X0.225000X-0.250000X-0.225000X0*%
%TD*%
%TA.AperFunction,SMDPad,CuDef*%
%ADD33R,1.400000X1.600000*%
%TD*%
%TA.AperFunction,SMDPad,CuDef*%
%ADD34RoundRect,0.250000X0.475000X-0.250000X0.475000X0.250000X-0.475000X0.250000X-0.475000X-0.250000X0*%
%TD*%
%TA.AperFunction,SMDPad,CuDef*%
%ADD35R,1.100000X1.900000*%
%TD*%
%TA.AperFunction,ViaPad*%
%ADD36C,0.700000*%
%TD*%
%TA.AperFunction,Conductor*%
%ADD37C,0.500000*%
%TD*%
%TA.AperFunction,Conductor*%
%ADD38C,0.300000*%
%TD*%
G04 APERTURE END LIST*
D10*
%TO.P,R6,1*%
%TO.N,Net-(D3-K)*%
X151100000Y-109090000D03*
%TO.P,R6,2*%
%TO.N,GND*%
X151100000Y-110110000D03*
%TD*%
D11*
%TO.P,U2,1,GND*%
%TO.N,GND*%
X145950000Y-77790000D03*
%TO.P,U2,2,VO*%
%TO.N,+3.3V*%
X145950000Y-80090000D03*
D12*
X152250000Y-80090000D03*
D11*
%TO.P,U2,3,VI*%
%TO.N,+5V*%
X145950000Y-82390000D03*
%TD*%
D13*
%TO.P,D1,1,K*%
%TO.N,Net-(D1-K)*%
X133600000Y-88090000D03*
%TO.P,D1,2,A*%
%TO.N,+3.3V*%
X135175000Y-88090000D03*
%TD*%
D14*
%TO.P,C10,1*%
%TO.N,OSC2_IN*%
X131425000Y-97590000D03*
%TO.P,C10,2*%
%TO.N,GND*%
X131425000Y-96630000D03*
%TD*%
D15*
%TO.P,J4,1,Pin_1*%
%TO.N,GND*%
X125260000Y-85300000D03*
D16*
%TO.P,J4,2,Pin_2*%
%TO.N,+5V*%
X127800000Y-85300000D03*
%TD*%
D17*
%TO.P,C4,1*%
%TO.N,NRST*%
X128687500Y-101090000D03*
%TO.P,C4,2*%
%TO.N,GND*%
X129647500Y-101090000D03*
%TD*%
D18*
%TO.P,U1,1,VDD*%
%TO.N,+3.3V*%
X134925000Y-95790000D03*
%TO.P,U1,2,PC14*%
%TO.N,OSC_IN*%
X134925000Y-96590000D03*
%TO.P,U1,3,PC15*%
%TO.N,OSC2_IN*%
X134925000Y-97390000D03*
%TO.P,U1,4,NRST*%
%TO.N,NRST*%
X134925000Y-98190000D03*
%TO.P,U1,5,VDDA*%
%TO.N,+3.3V*%
X134925000Y-98990000D03*
%TO.P,U1,6,PA0*%
%TO.N,unconnected-(U1-PA0-Pad6)*%
X134925000Y-99790000D03*
%TO.P,U1,7,PA1*%
%TO.N,unconnected-(U1-PA1-Pad7)*%
X134925000Y-100590000D03*
%TO.P,U1,8,PA2*%
%TO.N,unconnected-(U1-PA2-Pad8)*%
X134925000Y-101390000D03*
D19*
%TO.P,U1,9,PA3*%
%TO.N,PA3*%
X136300000Y-102765000D03*
%TO.P,U1,10,PA4*%
%TO.N,PA4*%
X137100000Y-102765000D03*
%TO.P,U1,11,PA5*%
%TO.N,SPI_SCK*%
X137900000Y-102765000D03*
%TO.P,U1,12,PA6*%
%TO.N,SPI_MISO*%
X138700000Y-102765000D03*
%TO.P,U1,13,PA7*%
%TO.N,SPI_MOSI*%
X139500000Y-102765000D03*
%TO.P,U1,14,PB0*%
%TO.N,LED1*%
X140300000Y-102765000D03*
%TO.P,U1,15,PB1*%
%TO.N,LED2*%
X141100000Y-102765000D03*
%TO.P,U1,16,VSS*%
%TO.N,GND*%
X141900000Y-102765000D03*
D18*
%TO.P,U1,17,VDD*%
%TO.N,+3.3V*%
X143275000Y-101390000D03*
%TO.P,U1,18,PA8*%
%TO.N,PA8*%
X143275000Y-100590000D03*
%TO.P,U1,19,PA9*%
%TO.N,USART1_TX*%
X143275000Y-99790000D03*
%TO.P,U1,20,PA10*%
%TO.N,USART1_RX*%
X143275000Y-98990000D03*
%TO.P,U1,21,PA11*%
%TO.N,PA11*%
X143275000Y-98190000D03*
%TO.P,U1,22,PA12*%
%TO.N,PA12*%
X143275000Y-97390000D03*
%TO.P,U1,23,PA13*%
%TO.N,SYS_SWDIO*%
X143275000Y-96590000D03*
%TO.P,U1,24,PA14*%
%TO.N,SYS_SWDCLK*%
X143275000Y-95790000D03*
D19*
%TO.P,U1,25,PA15*%
%TO.N,unconnected-(U1-PA15-Pad25)*%
X141900000Y-94415000D03*
%TO.P,U1,26,PB3*%
%TO.N,PB3*%
X141100000Y-94415000D03*
%TO.P,U1,27,PB4*%
%TO.N,unconnected-(U1-PB4-Pad27)*%
X140300000Y-94415000D03*
%TO.P,U1,28,PB5*%
%TO.N,unconnected-(U1-PB5-Pad28)*%
X139500000Y-94415000D03*
%TO.P,U1,29,PB6*%
%TO.N,unconnected-(U1-PB6-Pad29)*%
X138700000Y-94415000D03*
%TO.P,U1,30,PB7*%
%TO.N,unconnected-(U1-PB7-Pad30)*%
X137900000Y-94415000D03*
%TO.P,U1,31,BOOT0*%
%TO.N,BOOT0*%
X137100000Y-94415000D03*
%TO.P,U1,32,VSS*%
%TO.N,GND*%
X136300000Y-94415000D03*
%TD*%
D20*
%TO.P,R2,1*%
%TO.N,BOOT0*%
X138100000Y-88090000D03*
%TO.P,R2,2*%
%TO.N,GND*%
X138100000Y-87070000D03*
%TD*%
D21*
%TO.P,SW3,1,1*%
%TO.N,GND*%
X144100000Y-87340000D03*
X152100000Y-87340000D03*
%TO.P,SW3,2,2*%
%TO.N,PB3*%
X144100000Y-91840000D03*
X152100000Y-91840000D03*
%TD*%
D15*
%TO.P,J3,1,Pin_1*%
%TO.N,SPI_MOSI*%
X144100000Y-113590000D03*
D16*
%TO.P,J3,2,Pin_2*%
%TO.N,SPI_MISO*%
X141560000Y-113590000D03*
%TO.P,J3,3,Pin_3*%
%TO.N,SPI_SCK*%
X139020000Y-113590000D03*
%TO.P,J3,4,Pin_4*%
%TO.N,PA4*%
X136480000Y-113590000D03*
%TO.P,J3,5,Pin_5*%
%TO.N,PA3*%
X133940000Y-113590000D03*
%TD*%
D22*
%TO.P,J1,1,VBUS*%
%TO.N,+5V*%
X137300000Y-76765000D03*
%TO.P,J1,2,D-*%
%TO.N,unconnected-(J1-D--Pad2)*%
X137950000Y-76765000D03*
%TO.P,J1,3,D+*%
%TO.N,unconnected-(J1-D+-Pad3)*%
X138600000Y-76765000D03*
%TO.P,J1,4,ID*%
%TO.N,unconnected-(J1-ID-Pad4)*%
X139250000Y-76765000D03*
%TO.P,J1,5,GND*%
%TO.N,GND*%
X139900000Y-76765000D03*
D23*
%TO.P,J1,6,Shield*%
%TO.N,unconnected-(J1-Shield-Pad6)_1*%
X142775000Y-74090000D03*
D24*
%TO.N,unconnected-(J1-Shield-Pad6)*%
X142337500Y-74090000D03*
D25*
%TO.N,unconnected-(J1-Shield-Pad6)_3*%
X140825000Y-77090000D03*
D26*
%TO.N,unconnected-(J1-Shield-Pad6)_6*%
X138600000Y-74090000D03*
D25*
%TO.N,unconnected-(J1-Shield-Pad6)_4*%
X136375000Y-77090000D03*
D24*
%TO.N,unconnected-(J1-Shield-Pad6)_5*%
X134862500Y-74090000D03*
D23*
%TO.N,unconnected-(J1-Shield-Pad6)_2*%
X134425000Y-74090000D03*
%TD*%
D27*
%TO.P,D3,1,K*%
%TO.N,Net-(D3-K)*%
X151100000Y-107377500D03*
%TO.P,D3,2,A*%
%TO.N,LED2*%
X151100000Y-105802500D03*
%TD*%
D28*
%TO.P,C8,1*%
%TO.N,+3.3V*%
X145725000Y-102555000D03*
%TO.P,C8,2*%
%TO.N,GND*%
X145725000Y-103515000D03*
%TD*%
D29*
%TO.P,C3,1*%
%TO.N,+3.3V*%
X156100000Y-79190000D03*
%TO.P,C3,2*%
%TO.N,GND*%
X156100000Y-81090000D03*
%TD*%
D15*
%TO.P,J2,1,Pin_1*%
%TO.N,PA8*%
X160100000Y-106630000D03*
D16*
%TO.P,J2,2,Pin_2*%
%TO.N,USART1_TX*%
X160100000Y-104090000D03*
%TO.P,J2,3,Pin_3*%
%TO.N,USART1_RX*%
X160100000Y-101550000D03*
%TO.P,J2,4,Pin_4*%
%TO.N,PA11*%
X160100000Y-99010000D03*
%TO.P,J2,5,Pin_5*%
%TO.N,PA12*%
X160100000Y-96470000D03*
%TD*%
D30*
%TO.P,C5,1*%
%TO.N,+3.3V*%
X149600000Y-102040000D03*
%TO.P,C5,2*%
%TO.N,GND*%
X149600000Y-103590000D03*
%TD*%
D14*
%TO.P,C9,1*%
%TO.N,OSC_IN*%
X131425000Y-95090000D03*
%TO.P,C9,2*%
%TO.N,GND*%
X131425000Y-94130000D03*
%TD*%
D10*
%TO.P,R5,1*%
%TO.N,Net-(D2-K)*%
X147600000Y-109080000D03*
%TO.P,R5,2*%
%TO.N,GND*%
X147600000Y-110100000D03*
%TD*%
D28*
%TO.P,C7,1*%
%TO.N,+3.3V*%
X147100000Y-102610000D03*
%TO.P,C7,2*%
%TO.N,GND*%
X147100000Y-103570000D03*
%TD*%
D15*
%TO.P,J6,1,Pin_1*%
%TO.N,GND*%
X160100000Y-84590000D03*
D16*
%TO.P,J6,2,Pin_2*%
%TO.N,SYS_SWDCLK*%
X160100000Y-87130000D03*
%TO.P,J6,3,Pin_3*%
%TO.N,SYS_SWDIO*%
X160100000Y-89670000D03*
%TO.P,J6,4,Pin_4*%
%TO.N,+3.3V*%
X160100000Y-92210000D03*
%TD*%
D31*
%TO.P,R1,1*%
%TO.N,Net-(D1-K)*%
X133590000Y-90590000D03*
%TO.P,R1,2*%
%TO.N,GND*%
X134610000Y-90590000D03*
%TD*%
D17*
%TO.P,C6,1*%
%TO.N,+3.3V*%
X133620000Y-93090000D03*
%TO.P,C6,2*%
%TO.N,GND*%
X134580000Y-93090000D03*
%TD*%
D27*
%TO.P,D2,1,K*%
%TO.N,Net-(D2-K)*%
X147600000Y-107377500D03*
%TO.P,D2,2,A*%
%TO.N,LED1*%
X147600000Y-105802500D03*
%TD*%
D32*
%TO.P,C1,1*%
%TO.N,+5V*%
X139600000Y-82365000D03*
%TO.P,C1,2*%
%TO.N,GND*%
X139600000Y-80815000D03*
%TD*%
D33*
%TO.P,SW2,1,1*%
%TO.N,NRST*%
X125350000Y-111090000D03*
X125350000Y-103090000D03*
%TO.P,SW2,2,2*%
%TO.N,GND*%
X129850000Y-111090000D03*
X129850000Y-103090000D03*
%TD*%
D34*
%TO.P,C2,1*%
%TO.N,+5V*%
X142800000Y-82490000D03*
%TO.P,C2,2*%
%TO.N,GND*%
X142800000Y-80590000D03*
%TD*%
D35*
%TO.P,Y2,1,CRYSTAL_1*%
%TO.N,OSC_IN*%
X126275000Y-93740000D03*
%TO.P,Y2,2,GND_&_LID_1*%
%TO.N,GND*%
X126275000Y-97440000D03*
%TO.P,Y2,3,CRYSTAL_2*%
%TO.N,OSC2_IN*%
X128575000Y-97440000D03*
%TO.P,Y2,4,GND_&_LID_2*%
%TO.N,GND*%
X128575000Y-93740000D03*
%TD*%
D36*
%TO.N,GND*%
X130100000Y-104590000D03*
X135600000Y-90590000D03*
X136279355Y-96228998D03*
X125100000Y-87700000D03*
X141100000Y-100590000D03*
X138100000Y-86090000D03*
X142600000Y-87090000D03*
X151100000Y-111090000D03*
X156100000Y-82590000D03*
X124600000Y-98090000D03*
X147600000Y-111090000D03*
X151100000Y-103590000D03*
X144100000Y-78090000D03*
X131600000Y-93090000D03*
X130100000Y-96590000D03*
X143100000Y-79090000D03*
X130100000Y-92590000D03*
X157600000Y-84590000D03*
%TO.N,+3.3V*%
X131100000Y-98940000D03*
X132600000Y-99590000D03*
%TD*%
D37*
%TO.N,GND*%
X139600000Y-78290000D02*
X139900000Y-77990000D01*
D38*
X129850000Y-111090000D02*
X129850000Y-104840000D01*
D37*
X128950000Y-93740000D02*
X128575000Y-93740000D01*
D38*
X131425000Y-96630000D02*
X130140000Y-96630000D01*
D37*
X144100000Y-87340000D02*
X152100000Y-87340000D01*
X124600000Y-98090000D02*
X125250000Y-97440000D01*
X141100000Y-100590000D02*
X141100000Y-101198362D01*
D38*
X134610000Y-90590000D02*
X135600000Y-90590000D01*
X131425000Y-94130000D02*
X131425000Y-93265000D01*
D37*
X142875000Y-80815000D02*
X143100000Y-80590000D01*
X125250000Y-97440000D02*
X126275000Y-97440000D01*
D38*
X130100000Y-104590000D02*
X129575000Y-104065000D01*
X147100000Y-103570000D02*
X145780000Y-103570000D01*
X160100000Y-84590000D02*
X157600000Y-84590000D01*
X129575000Y-104065000D02*
X129575000Y-101090000D01*
D37*
X130100000Y-92590000D02*
X128950000Y-93740000D01*
D38*
X145725000Y-103515000D02*
X141900000Y-103515000D01*
D37*
X141900000Y-101998362D02*
X141900000Y-102765000D01*
X142600000Y-87090000D02*
X143850000Y-87090000D01*
D38*
X149580000Y-103570000D02*
X149600000Y-103590000D01*
X149600000Y-103590000D02*
X151100000Y-103590000D01*
D37*
X143100000Y-80590000D02*
X143100000Y-79090000D01*
X141100000Y-101198362D02*
X141900000Y-101998362D01*
D38*
X136300000Y-94415000D02*
X136300000Y-93290000D01*
X151100000Y-110110000D02*
X151100000Y-111090000D01*
D37*
X139900000Y-77990000D02*
X139900000Y-77590000D01*
X156100000Y-82590000D02*
X156100000Y-81090000D01*
D38*
X147600000Y-110100000D02*
X147600000Y-111090000D01*
X147100000Y-103570000D02*
X149580000Y-103570000D01*
D37*
X139600000Y-80815000D02*
X139600000Y-78290000D01*
D38*
X136100000Y-93090000D02*
X134580000Y-93090000D01*
D37*
X144400000Y-77790000D02*
X144100000Y-78090000D01*
D38*
X130140000Y-96630000D02*
X130100000Y-96590000D01*
X131425000Y-93265000D02*
X131600000Y-93090000D01*
D37*
X139600000Y-80815000D02*
X142875000Y-80815000D01*
D38*
X136300000Y-93290000D02*
X136100000Y-93090000D01*
X136300000Y-94415000D02*
X136300000Y-96208353D01*
X138100000Y-87070000D02*
X138100000Y-86090000D01*
D37*
X145950000Y-77790000D02*
X144400000Y-77790000D01*
D38*
X145780000Y-103570000D02*
X145725000Y-103515000D01*
D37*
X125260000Y-87540000D02*
X125100000Y-87700000D01*
X125260000Y-85300000D02*
X125260000Y-87540000D01*
D38*
X129850000Y-104840000D02*
X130100000Y-104590000D01*
D37*
X143850000Y-87090000D02*
X144100000Y-87340000D01*
D38*
X136300000Y-96208353D02*
X136279355Y-96228998D01*
D37*
%TO.N,+5V*%
X144200000Y-83600000D02*
X144100000Y-83700000D01*
X137600000Y-80365000D02*
X137600000Y-77870588D01*
X145850000Y-82490000D02*
X145950000Y-82390000D01*
X144200000Y-82490000D02*
X144200000Y-83600000D01*
X144100000Y-83700000D02*
X131800000Y-83700000D01*
X131800000Y-83700000D02*
X130200000Y-85300000D01*
X144500000Y-82490000D02*
X145850000Y-82490000D01*
X139600000Y-82365000D02*
X137600000Y-80365000D01*
X130200000Y-85300000D02*
X127800000Y-85300000D01*
X142975000Y-82365000D02*
X143100000Y-82490000D01*
X143100000Y-82490000D02*
X144500000Y-82490000D01*
X139600000Y-82365000D02*
X142975000Y-82365000D01*
X137600000Y-77870588D02*
X137336635Y-77607223D01*
D38*
%TO.N,+3.3V*%
X160100000Y-92210000D02*
X162480000Y-92210000D01*
D37*
X132600000Y-99590000D02*
X133200000Y-98990000D01*
X133100000Y-84590000D02*
X132100000Y-85590000D01*
D38*
X144560000Y-101390000D02*
X145725000Y-102555000D01*
D37*
X128600000Y-99590000D02*
X123600000Y-99590000D01*
D38*
X162600000Y-110590000D02*
X162600000Y-81590000D01*
X156100000Y-106590000D02*
X156100000Y-110590000D01*
X160650000Y-79640000D02*
X156650000Y-79640000D01*
D37*
X135175000Y-86015000D02*
X135175000Y-88090000D01*
D38*
X133620000Y-93570000D02*
X133620000Y-93090000D01*
X145780000Y-102610000D02*
X145725000Y-102555000D01*
D37*
X152250000Y-80090000D02*
X154650000Y-80090000D01*
X133200000Y-98990000D02*
X134925000Y-98990000D01*
X136600000Y-84590000D02*
X133100000Y-84590000D01*
D38*
X133300000Y-95790000D02*
X133100000Y-95590000D01*
D37*
X132100000Y-91570000D02*
X133620000Y-93090000D01*
X152100000Y-84590000D02*
X136600000Y-84590000D01*
X154650000Y-80090000D02*
X155100000Y-79640000D01*
D38*
X151550000Y-102040000D02*
X156100000Y-106590000D01*
X162480000Y-92210000D02*
X162600000Y-92090000D01*
X156100000Y-110590000D02*
X162600000Y-110590000D01*
X134925000Y-95790000D02*
X133300000Y-95790000D01*
D37*
X132100000Y-85590000D02*
X132100000Y-90590000D01*
X145950000Y-80090000D02*
X152250000Y-80090000D01*
D38*
X133100000Y-95590000D02*
X133100000Y-94090000D01*
D37*
X129250000Y-98940000D02*
X128600000Y-99590000D01*
X131100000Y-98940000D02*
X129250000Y-98940000D01*
D38*
X133100000Y-94090000D02*
X133620000Y-93570000D01*
D37*
X155100000Y-79640000D02*
X156650000Y-79640000D01*
D38*
X149030000Y-102610000D02*
X149600000Y-102040000D01*
D37*
X123600000Y-90590000D02*
X132100000Y-90590000D01*
D38*
X143275000Y-101390000D02*
X144560000Y-101390000D01*
X149600000Y-102040000D02*
X151550000Y-102040000D01*
D37*
X123600000Y-99590000D02*
X123600000Y-90590000D01*
D38*
X147100000Y-102610000D02*
X145780000Y-102610000D01*
D37*
X152250000Y-84440000D02*
X152100000Y-84590000D01*
X132100000Y-90590000D02*
X132100000Y-91570000D01*
X152250000Y-80090000D02*
X152250000Y-84440000D01*
D38*
X147100000Y-102610000D02*
X149030000Y-102610000D01*
D37*
X136600000Y-84590000D02*
X135175000Y-86015000D01*
D38*
X162600000Y-81590000D02*
X160650000Y-79640000D01*
%TO.N,NRST*%
X128760000Y-100278528D02*
X128760000Y-101090000D01*
X125350000Y-103090000D02*
X125350000Y-101840000D01*
X125350000Y-103090000D02*
X125350000Y-111090000D01*
X134925000Y-98190000D02*
X133000000Y-98190000D01*
X128948528Y-100090000D02*
X128760000Y-100278528D01*
X125350000Y-101840000D02*
X126100000Y-101090000D01*
X126100000Y-101090000D02*
X128760000Y-101090000D01*
X128948528Y-100090000D02*
X131100000Y-100090000D01*
X133000000Y-98190000D02*
X131100000Y-100090000D01*
%TO.N,OSC_IN*%
X127625000Y-95090000D02*
X126275000Y-93740000D01*
X131425000Y-95090000D02*
X127625000Y-95090000D01*
X131425000Y-95415000D02*
X131425000Y-95090000D01*
X134925000Y-96590000D02*
X132600000Y-96590000D01*
X132600000Y-96590000D02*
X131425000Y-95415000D01*
%TO.N,OSC2_IN*%
X134925000Y-97390000D02*
X133300000Y-97390000D01*
X128725000Y-97590000D02*
X128575000Y-97440000D01*
X133100000Y-97590000D02*
X131425000Y-97590000D01*
X131425000Y-97590000D02*
X128725000Y-97590000D01*
X133300000Y-97390000D02*
X133100000Y-97590000D01*
%TO.N,Net-(D1-K)*%
X133590000Y-90590000D02*
X133590000Y-88100000D01*
X133590000Y-88100000D02*
X133600000Y-88090000D01*
%TO.N,LED1*%
X140300000Y-102765000D02*
X140300000Y-104290000D01*
X140300000Y-104290000D02*
X141812500Y-105802500D01*
X141812500Y-105802500D02*
X147600000Y-105802500D01*
%TO.N,Net-(D2-K)*%
X147600000Y-107377500D02*
X147600000Y-109080000D01*
%TO.N,Net-(D3-K)*%
X151100000Y-107377500D02*
X151100000Y-109090000D01*
%TO.N,LED2*%
X141100000Y-103590000D02*
X141100000Y-102765000D01*
X151100000Y-105802500D02*
X149887500Y-104590000D01*
X149887500Y-104590000D02*
X142100000Y-104590000D01*
X142100000Y-104590000D02*
X141100000Y-103590000D01*
%TO.N,PA3*%
X133940000Y-106750000D02*
X133940000Y-113590000D01*
X136300000Y-102765000D02*
X136300000Y-104390000D01*
X136300000Y-104390000D02*
X133940000Y-106750000D01*
%TO.N,PA8*%
X143325000Y-100540000D02*
X154010000Y-100540000D01*
X154010000Y-100540000D02*
X160100000Y-106630000D01*
X143275000Y-100590000D02*
X143325000Y-100540000D01*
%TO.N,PA4*%
X136480000Y-113590000D02*
X136480000Y-106710000D01*
X136480000Y-106710000D02*
X137100000Y-106090000D01*
X137100000Y-106090000D02*
X137100000Y-102765000D01*
%TO.N,SPI_SCK*%
X139020000Y-113590000D02*
X137900000Y-112470000D01*
X137900000Y-112470000D02*
X137900000Y-102765000D01*
%TO.N,SPI_MOSI*%
X139500000Y-108990000D02*
X139500000Y-102765000D01*
X144100000Y-113590000D02*
X139500000Y-108990000D01*
%TO.N,SPI_MISO*%
X138700000Y-110730000D02*
X138700000Y-102765000D01*
X141560000Y-113590000D02*
X138700000Y-110730000D01*
%TO.N,USART1_TX*%
X143275000Y-99790000D02*
X155800000Y-99790000D01*
X155800000Y-99790000D02*
X160100000Y-104090000D01*
%TO.N,USART1_RX*%
X157540000Y-98990000D02*
X160100000Y-101550000D01*
X143275000Y-98990000D02*
X157540000Y-98990000D01*
%TO.N,PA12*%
X143275000Y-97390000D02*
X159180000Y-97390000D01*
X159180000Y-97390000D02*
X160100000Y-96470000D01*
%TO.N,PB3*%
X141100000Y-94415000D02*
X141100000Y-93789784D01*
X141100000Y-93789784D02*
X143049784Y-91840000D01*
X143049784Y-91840000D02*
X144100000Y-91840000D01*
X152100000Y-91840000D02*
X144100000Y-91840000D01*
%TO.N,PA11*%
X143275000Y-98190000D02*
X159280000Y-98190000D01*
X159280000Y-98190000D02*
X160100000Y-99010000D01*
%TO.N,SYS_SWDCLK*%
X151600000Y-95790000D02*
X151600000Y-95630000D01*
X143275000Y-95790000D02*
X151600000Y-95790000D01*
X151600000Y-95630000D02*
X160100000Y-87130000D01*
%TO.N,SYS_SWDIO*%
X152600000Y-96590000D02*
X158600000Y-90590000D01*
X143275000Y-96590000D02*
X152600000Y-96590000D01*
X158600000Y-90590000D02*
X159180000Y-90590000D01*
X159180000Y-90590000D02*
X160100000Y-89670000D01*
%TO.N,BOOT0*%
X138100000Y-92590000D02*
X138100000Y-88090000D01*
X137100000Y-93590000D02*
X138100000Y-92590000D01*
X137100000Y-94415000D02*
X137100000Y-93590000D01*
%TD*%
M02*
