M48
; DRILL file {KiCad 8.0.9} date 2025-03-10T14:56:11+1100
; FORMAT={-:-/ absolute / metric / decimal}
; #@! TF.CreationDate,2025-03-10T14:56:11+11:00
; #@! TF.GenerationSoftware,Kicad,Pcbnew,8.0.9
; #@! TF.FileFunction,MixedPlating,1,2
FMAT,2
METRIC
; #@! TA.AperFunction,Plated,PTH,ViaDrill
T1C0.300
; #@! TA.AperFunction,Plated,PTH,ComponentDrill
T2C0.600
; #@! TA.AperFunction,Plated,PTH,ComponentDrill
T3C0.650
; #@! TA.AperFunction,Plated,PTH,ComponentDrill
T4C1.000
; #@! TA.AperFunction,NonPlated,NPTH,ComponentDrill
T5C2.200
%
G90
G05
T1
X124.6Y-98.09
X125.1Y-87.7
X130.1Y-92.59
X130.1Y-96.59
X130.1Y-104.59
X131.1Y-98.94
X131.6Y-93.09
X132.6Y-99.59
X135.6Y-90.59
X136.279Y-96.229
X138.1Y-86.09
X141.1Y-100.59
X142.6Y-87.09
X143.1Y-79.09
X144.1Y-78.09
X147.6Y-111.09
X151.1Y-103.59
X151.1Y-111.09
X156.1Y-82.59
X157.6Y-84.59
T4
X125.26Y-85.3
X127.8Y-85.3
X133.94Y-113.59
X136.48Y-113.59
X139.02Y-113.59
X141.56Y-113.59
X144.1Y-113.59
X160.1Y-84.59
X160.1Y-87.13
X160.1Y-89.67
X160.1Y-92.21
X160.1Y-96.47
X160.1Y-99.01
X160.1Y-101.55
X160.1Y-104.09
X160.1Y-106.63
T5
X121.0Y-75.59
X121.0Y-113.0
X160.0Y-75.59
X160.0Y-113.0
T2
X134.425Y-74.44G85X134.425Y-73.74
G05
X142.775Y-74.44G85X142.775Y-73.74
G05
T3
X136.375Y-77.19G85X136.375Y-76.99
G05
X140.825Y-77.19G85X140.825Y-76.99
G05
M30
